<?xml version="1.0" standalone="no"?>
<!DOCTYPE svg PUBLIC "-//W3C//DTD SVG 20010904//EN"
 "http://www.w3.org/TR/2001/REC-SVG-20010904/DTD/svg10.dtd">
<svg version="1.0" xmlns="http://www.w3.org/2000/svg"
 width="3264.000000pt" height="3264.000000pt" viewBox="0 0 3264.000000 3264.000000"
 preserveAspectRatio="xMidYMid meet">

<g transform="translate(0.000000,3264.000000) scale(0.100000,-0.100000)"
fill="#FFFFFF" stroke="none">
<path d="M5224 20605 c-3 -14 -4 -44 0 -65 l6 -40 -75 0 -75 0 0 -70 0 -70 76
0 77 0 -5 -48 c-3 -33 -13 -56 -31 -76 -14 -15 -29 -37 -32 -47 -6 -17 -7 -17
-38 0 -50 28 -123 40 -232 39 l-100 0 -34 -55 c-43 -70 -88 -92 -186 -93 -124
0 -145 -32 -145 -214 0 -133 6 -172 47 -301 60 -188 153 -343 285 -477 80 -82
107 -98 164 -98 21 0 37 -6 40 -14 27 -69 551 -77 650 -10 19 13 50 24 68 24
108 0 342 297 420 532 56 169 60 190 60 334 1 99 -3 148 -12 166 -22 41 -63
58 -139 58 -86 0 -135 26 -181 95 l-32 50 -98 2 c-107 3 -180 -10 -230 -38
-40 -23 -42 -23 -42 -5 0 7 -13 30 -30 51 -23 29 -30 48 -30 81 l0 44 70 0 70
0 0 70 0 70 -70 0 -69 0 -3 63 -3 62 -67 3 c-65 3 -68 2 -74 -23z m-308 -592
c19 -25 17 -33 -6 -33 -15 0 -20 7 -20 25 0 29 8 32 26 8z m784 -8 c0 -18 -5
-25 -20 -25 -24 0 -25 8 -3 32 21 23 23 23 23 -7z m-354 -87 c-4 -46 -11 -130
-16 -188 -5 -58 -13 -138 -16 -177 -6 -60 -10 -73 -24 -73 -15 0 -18 14 -24
88 -3 48 -11 137 -16 197 -5 61 -11 138 -14 173 l-4 62 60 0 61 0 -7 -82z
m464 2 c0 -5 -4 -10 -10 -10 -5 0 -10 5 -10 10 0 6 5 10 10 10 6 0 10 -4 10
-10z m-805 -50 c21 -42 19 -50 -15 -50 -27 0 -30 2 -20 19 5 11 10 29 10 40 0
29 7 26 25 -9z m621 -31 c17 -19 9 -29 -22 -29 -33 0 -37 14 -17 56 17 34 18
35 21 13 2 -13 10 -31 18 -40z m-726 -36 c0 -5 -5 -15 -10 -23 -9 -13 -11 -13
-20 0 -15 22 -12 30 10 30 11 0 20 -3 20 -7z m830 -7 c0 -24 -15 -26 -28 -5
-11 16 -9 19 8 19 11 0 20 -6 20 -14z m-159 -155 c21 -9 19 -10 -18 -10 -44
-1 -48 4 -36 35 6 15 7 15 18 1 7 -9 23 -21 36 -26z m-491 9 c0 -18 -7 -20
-54 -20 -35 0 -58 -5 -66 -15 -14 -17 -30 -11 -30 11 0 10 13 14 48 14 27 0
57 6 68 15 26 20 34 19 34 -5z m580 -19 c0 -18 -15 -19 -40 -5 l-25 13 33 1
c17 0 32 -4 32 -9z m-540 -186 c0 -24 -3 -25 -54 -25 -30 0 -61 -3 -69 -6 -9
-3 -16 3 -20 15 -5 19 -1 21 46 21 29 0 59 5 67 10 23 15 30 12 30 -15z m453
5 c41 0 48 -3 45 -17 -2 -10 -9 -18 -16 -17 -6 1 -37 2 -67 3 -49 1 -55 3 -55
22 0 17 4 20 23 15 12 -3 44 -6 70 -6z m-243 -85 c15 -8 38 -30 50 -49 20 -33
20 -37 6 -65 -21 -40 -71 -74 -99 -67 -32 8 -87 65 -87 90 0 29 25 63 64 87
37 23 31 22 66 4z m-189 -227 c10 -13 18 -26 19 -30 0 -3 -21 -8 -47 -11 -27
-2 -63 -9 -81 -15 -32 -11 -33 -10 -30 16 2 19 13 32 38 44 48 23 78 22 101
-4z m422 3 c20 -8 27 -17 27 -37 0 -24 -3 -26 -27 -20 -16 4 -52 10 -80 13
-29 3 -53 8 -53 11 0 3 10 17 23 30 23 25 51 26 110 3z"/>
<path d="M3960 19175 c-19 -7 -45 -14 -58 -14 -12 -1 -30 -5 -40 -10 -19 -10
-86 -24 -202 -41 -177 -26 -363 -65 -385 -80 -5 -4 -30 -15 -54 -24 -66 -25
-127 -71 -159 -119 -28 -43 -52 -101 -52 -129 0 -8 -18 -29 -41 -47 -85 -69
-129 -163 -129 -276 0 -157 91 -268 220 -270 l45 0 6 55 c9 84 23 108 75 131
40 18 67 21 199 21 174 0 244 -11 330 -53 33 -16 76 -29 96 -29 84 0 211 -121
239 -227 11 -43 11 -43 56 -43 39 0 46 3 54 26 13 33 28 22 58 -38 28 -60 34
-82 41 -168 l6 -75 33 -3 c18 -2 39 2 47 8 20 17 45 -37 46 -102 2 -83 11
-113 36 -116 17 -3 23 -11 25 -40 2 -29 8 -37 27 -42 38 -9 46 -58 25 -137
-17 -62 -66 -143 -86 -143 -23 0 -137 57 -205 102 -93 62 -188 141 -338 282
-181 170 -449 396 -470 396 -2 0 -35 20 -72 44 -185 118 -391 179 -608 180
-209 0 -330 -41 -442 -152 -72 -69 -105 -121 -208 -317 -179 -342 -288 -483
-512 -662 -66 -53 -72 -61 -72 -95 l-1 -38 66 0 c76 0 74 15 17 -140 -37 -100
-102 -245 -108 -239 -1 2 -22 40 -45 84 -23 44 -57 107 -75 140 -18 33 -57
107 -88 165 -95 181 -100 190 -113 190 -7 0 -20 7 -29 17 -14 14 -18 14 -26 2
-12 -19 -11 -63 2 -96 18 -45 25 -63 64 -163 20 -52 45 -117 57 -145 11 -27
24 -59 28 -70 4 -11 18 -45 30 -75 72 -176 92 -233 86 -254 -3 -11 -29 -59
-57 -106 -28 -47 -57 -94 -63 -105 -13 -23 -12 -22 -153 -238 -80 -123 -103
-166 -103 -193 0 -30 3 -34 28 -34 28 0 96 21 108 33 4 4 11 7 15 7 8 0 -29
-110 -42 -125 -5 -5 -9 -15 -9 -22 0 -12 -61 -164 -100 -248 -131 -282 -152
-323 -315 -600 -95 -163 -108 -185 -182 -320 -49 -90 -100 -193 -155 -314 -16
-36 -35 -79 -43 -95 -34 -76 -45 -111 -45 -147 0 -38 1 -39 38 -39 99 0 453
300 655 554 26 34 54 69 62 79 8 9 15 21 15 25 1 4 12 21 26 37 l26 30 -7 -30
c-29 -118 -42 -186 -51 -267 l-7 -58 40 0 c26 0 54 10 86 30 66 42 218 190
279 272 53 72 68 80 49 27 -6 -18 -11 -52 -11 -75 l0 -44 38 0 c71 0 221 137
389 358 33 43 66 89 73 102 6 12 16 18 20 14 5 -5 40 -90 80 -189 39 -99 80
-199 90 -222 11 -24 20 -48 20 -53 0 -6 9 -28 20 -50 11 -22 20 -42 20 -46 0
-3 -17 -3 -37 0 -21 4 -73 9 -115 12 -67 5 -81 3 -117 -17 l-41 -23 0 -71 c0
-58 4 -75 19 -89 25 -23 104 -46 158 -46 l43 0 0 -45 c0 -36 6 -52 25 -71 22
-22 25 -34 25 -93 0 -78 16 -103 79 -122 30 -9 41 -18 46 -38 15 -62 74 -91
181 -91 l74 0 0 -32 c0 -83 80 -135 188 -125 75 7 108 23 135 66 28 46 31 149
5 200 -10 19 -18 38 -18 42 0 4 18 18 40 30 22 13 47 33 55 46 9 13 24 23 34
23 10 0 38 11 62 23 24 13 61 27 81 31 20 3 47 14 59 24 13 10 51 26 84 35 33
10 74 23 90 29 17 5 50 14 75 19 24 5 49 14 54 19 6 6 21 10 34 10 21 0 23 -3
17 -22 -24 -81 -29 -120 -28 -268 0 -163 6 -223 25 -247 16 -20 78 -16 84 5
36 113 110 232 180 290 60 50 64 46 64 -66 0 -105 16 -212 34 -224 6 -4 25 -8
42 -8 30 0 32 3 54 68 32 94 92 206 153 282 49 62 51 64 58 40 4 -14 8 -41 8
-60 2 -42 25 -113 49 -146 21 -28 92 -35 92 -8 0 26 69 183 104 239 38 58 89
111 94 96 5 -16 -45 -146 -88 -227 -29 -55 -40 -88 -40 -120 0 -37 3 -44 20
-44 26 0 26 -1 -11 -95 -112 -288 -265 -533 -470 -749 -81 -85 -90 -99 -87
-128 l3 -33 73 1 c41 1 95 8 120 15 62 16 165 63 216 98 23 15 47 31 55 36 20
12 -75 -123 -149 -211 -53 -63 -60 -77 -60 -114 l0 -43 96 7 c53 4 117 15 145
25 30 12 49 15 49 8 0 -6 -22 -41 -50 -79 -37 -51 -50 -77 -50 -103 l0 -35 67
0 c63 0 89 5 176 36 l37 14 0 -86 c0 -99 10 -124 48 -124 45 1 196 81 231 124
23 27 27 18 23 -54 l-4 -70 39 0 c51 0 94 24 163 94 l57 58 32 -53 c51 -88 74
-109 119 -109 34 0 44 6 74 43 19 23 43 58 53 77 10 19 19 37 21 39 3 3 27
-21 55 -53 58 -64 112 -96 163 -96 l35 0 3 70 3 70 48 -38 c72 -57 151 -95
199 -96 50 -1 55 10 57 122 1 42 5 72 11 72 6 0 39 -9 74 -21 44 -14 84 -19
127 -17 62 3 64 4 67 32 3 20 -5 39 -27 67 -17 21 -31 41 -31 44 0 4 -11 20
-25 37 -14 16 -25 33 -25 37 0 5 26 0 58 -11 36 -12 90 -20 147 -21 l90 -2 3
32 c3 26 -10 48 -83 140 -89 113 -148 202 -124 188 8 -5 28 -19 44 -31 88 -66
230 -115 338 -117 l82 -2 3 35 c2 32 -4 41 -64 100 -192 187 -338 406 -475
715 -12 28 -49 136 -49 145 0 4 9 10 20 13 32 8 26 68 -14 140 -45 80 -96 209
-96 239 1 21 5 18 43 -23 52 -57 92 -130 128 -234 l28 -80 38 0 c36 0 40 3 66
52 18 34 30 74 34 117 3 36 9 66 12 66 11 0 66 -62 100 -112 50 -75 121 -235
121 -274 0 -21 5 -24 39 -24 28 0 41 5 46 18 21 51 34 138 35 225 0 53 4 97 9
97 5 0 35 -23 66 -52 61 -56 135 -171 155 -243 9 -33 19 -47 36 -51 40 -10 63
4 69 44 3 20 10 56 16 79 21 94 5 316 -30 406 -12 32 0 36 45 12 16 -8 36 -15
45 -15 8 0 35 -6 60 -14 24 -7 71 -22 104 -32 33 -10 72 -26 86 -36 14 -9 45
-22 69 -27 44 -10 110 -63 110 -89 0 -7 21 -55 48 -105 70 -136 148 -214 317
-319 58 -37 63 -38 154 -38 94 0 120 5 215 41 27 11 60 19 73 19 29 0 189 78
284 138 73 46 100 74 156 158 l38 57 0 117 c0 106 -2 120 -27 167 -14 28 -32
78 -38 110 -30 144 -143 293 -279 366 -38 20 -77 37 -85 37 -17 0 -25 18 -18
43 3 11 14 17 33 17 35 0 49 23 49 84 0 40 -3 46 -25 52 -21 5 -25 12 -25 45
0 44 -16 53 -86 47 -34 -3 -39 -6 -42 -30 -3 -24 -8 -28 -36 -28 -45 0 -56
-16 -56 -82 0 -55 1 -58 25 -58 17 0 25 -5 25 -17 0 -34 -15 -40 -105 -47 -49
-4 -110 -12 -135 -19 -109 -29 -252 -138 -310 -236 -61 -104 -63 -106 -106
-109 -45 -3 -256 21 -324 38 -25 6 -63 15 -85 19 -22 4 -52 14 -67 21 l-27 13
37 42 c55 62 83 123 89 188 l6 57 -37 0 c-26 0 -55 -12 -105 -46 -62 -41 -175
-83 -188 -70 -3 3 9 28 27 56 48 75 79 159 80 213 0 47 0 47 -33 47 -19 0 -56
-7 -83 -15 -58 -18 -173 -20 -208 -4 -20 9 -26 20 -28 52 -3 39 -5 42 -51 58
-53 19 -103 58 -135 106 -12 18 -22 35 -22 38 0 3 24 5 54 5 30 0 61 3 70 6
24 9 21 67 -5 90 -65 58 -122 187 -123 278 -1 61 29 156 44 139 4 -4 17 -37
29 -73 35 -103 40 -110 76 -110 18 0 38 6 44 14 13 15 56 153 66 210 7 43 12
41 46 -24 81 -152 228 -284 319 -285 l45 0 0 108 c0 59 3 106 6 105 4 -2 34
-38 68 -80 105 -133 260 -243 333 -236 l33 3 3 93 3 93 87 -88 c107 -108 196
-166 249 -161 l38 3 3 52 c2 28 -1 82 -6 120 -5 37 -8 69 -7 71 2 2 36 -41 75
-95 147 -199 374 -393 461 -393 21 0 40 3 42 8 3 4 2 37 -2 75 -4 37 -6 67 -5
67 1 0 36 -52 78 -114 201 -307 421 -536 513 -536 l36 0 -5 75 c-3 41 -4 75
-3 75 2 0 34 -39 73 -87 135 -169 265 -273 343 -273 l41 0 -4 43 c-4 35 -35
195 -52 272 -6 22 -13 30 143 -160 155 -189 337 -357 514 -476 49 -33 72 -43
107 -43 l45 -1 -2 43 c-2 44 -35 129 -123 317 -54 115 -221 422 -291 533 -16
26 -34 58 -41 72 -7 14 -20 36 -29 50 -64 95 -188 343 -286 575 -65 151 -123
299 -123 311 0 1 17 -4 38 -12 20 -7 54 -13 75 -14 36 0 37 1 37 34 0 26 -24
70 -105 192 -161 246 -296 476 -383 655 -44 90 -83 175 -87 189 -3 14 -13 40
-21 58 -8 17 -21 52 -28 77 l-14 44 67 3 66 3 3 32 c3 28 -4 37 -67 87 -223
178 -349 340 -518 666 -178 343 -262 419 -513 466 -186 34 -411 -3 -620 -103
-206 -99 -365 -222 -720 -556 -58 -54 -149 -132 -202 -173 -97 -74 -255 -164
-289 -164 -33 0 -90 106 -97 182 -6 65 3 96 31 100 17 2 23 10 25 40 2 29 8
37 24 40 19 3 24 14 35 83 18 109 32 150 46 136 15 -15 77 -14 81 2 2 6 9 53
15 102 9 64 20 104 40 139 33 59 44 65 59 31 9 -18 19 -25 41 -25 39 0 61 9
61 25 0 29 41 106 76 145 49 54 129 100 175 100 20 0 59 13 90 29 74 39 159
53 324 53 222 0 266 -22 275 -140 5 -64 6 -67 33 -70 38 -5 121 25 158 55 44
38 68 93 75 175 7 74 -7 168 -30 212 -17 34 -66 87 -103 114 -23 16 -33 33
-38 65 -16 94 -72 160 -179 212 -86 41 -140 59 -226 74 -36 7 -87 16 -115 21
-27 5 -81 14 -120 20 -89 14 -173 30 -205 40 -76 24 -161 41 -191 38 -28 -2
-35 -7 -37 -30 -3 -25 16 -75 48 -125 8 -12 12 -24 9 -27 -13 -14 -214 -36
-324 -36 l-125 0 0 -46 c0 -37 4 -47 20 -51 36 -9 21 -20 -47 -35 -65 -13 -68
-15 -71 -45 -2 -18 2 -42 8 -54 10 -18 8 -25 -15 -49 -14 -15 -45 -33 -68 -40
-23 -8 -54 -22 -69 -32 -14 -10 -30 -18 -35 -18 -14 0 -118 -112 -141 -153
-12 -21 -22 -48 -22 -60 0 -11 -14 -58 -31 -104 -24 -62 -36 -83 -50 -83 -37
0 -184 -85 -238 -137 l-54 -52 -61 57 c-59 54 -194 132 -230 132 -9 0 -21 12
-27 28 -6 15 -20 46 -30 70 -10 23 -19 54 -19 67 0 76 -112 209 -220 263 -35
18 -71 32 -80 32 -26 0 -72 60 -59 76 6 7 9 30 7 50 -3 38 -3 38 -61 50 -70
14 -77 20 -49 40 22 15 28 47 16 78 -5 13 -26 16 -129 16 -98 0 -308 23 -323
35 -2 1 11 26 28 54 20 34 30 65 30 91 l0 40 -47 -1 c-27 0 -64 -7 -83 -14z
m-92 -149 c-11 -8 -18 -27 -18 -48 0 -33 4 -37 50 -57 28 -12 84 -27 125 -34
68 -10 75 -14 75 -35 0 -12 9 -40 20 -62 11 -22 20 -42 20 -45 0 -10 -100 -5
-147 8 -29 7 -62 26 -87 50 -26 25 -49 37 -68 37 -27 0 -28 -2 -28 -45 0 -51
16 -90 50 -120 36 -31 120 -135 120 -147 0 -7 -34 -8 -110 -3 l-110 7 0 -47 0
-46 -47 7 c-27 4 -58 11 -71 15 -13 5 -38 9 -55 9 -36 0 -163 25 -202 40 -81
31 -165 80 -209 122 -49 47 -57 70 -18 49 32 -17 163 -14 189 4 22 15 53 68
53 90 0 7 9 20 20 30 14 13 20 31 20 62 0 42 -1 43 -34 43 -18 0 -72 -18 -119
-40 -93 -44 -118 -50 -96 -24 40 48 229 116 388 140 58 8 120 19 137 25 17 5
44 9 60 10 16 0 38 4 49 9 11 5 29 9 40 9 19 0 19 0 3 -13z m2905 5 c82 -18
153 -31 257 -47 155 -24 299 -76 370 -133 43 -35 -5 -25 -95 19 -50 25 -94 40
-117 40 l-38 0 0 -44 c0 -28 6 -48 16 -57 9 -8 25 -33 35 -56 31 -72 48 -83
135 -83 41 0 84 5 96 11 55 30 15 -34 -54 -84 -69 -50 -203 -103 -298 -117
-47 -7 -117 -19 -157 -26 -40 -8 -75 -14 -78 -14 -3 0 -5 21 -5 46 l0 46 -116
-7 -116 -8 15 30 c9 16 44 60 79 99 78 86 88 103 88 154 l0 40 -40 0 c-22 0
-40 -4 -40 -9 0 -21 -56 -61 -105 -76 -61 -17 -145 -20 -145 -4 0 6 5 20 12
32 6 12 14 37 17 56 l6 34 95 19 c52 11 109 27 125 37 36 21 45 63 19 92 -20
22 -18 22 39 10z m-2469 -236 c11 -8 17 -17 14 -20 -8 -8 -58 13 -58 25 0 14
22 12 44 -5z m2026 0 c-7 -8 -21 -15 -32 -15 -17 0 -18 3 -8 15 7 8 21 15 32
15 17 0 18 -3 8 -15z m-1874 -147 c17 -18 41 -47 53 -65 21 -31 21 -32 2 -38
-11 -3 -36 -3 -56 1 -29 5 -43 17 -75 65 l-40 58 33 4 c17 2 37 5 43 5 5 1 24
-13 40 -30z m1782 -2 c-6 -11 -22 -38 -36 -58 -23 -36 -27 -38 -78 -38 -30 0
-54 4 -54 9 0 5 22 34 49 63 46 51 51 53 90 50 38 -4 40 -5 29 -26z m-2005
-48 c39 -48 61 -87 54 -95 -3 -2 -31 0 -64 6 -61 11 -85 31 -126 100 l-18 31
60 0 c58 0 61 -1 94 -42z m2277 36 c0 -3 -14 -28 -32 -55 -32 -50 -52 -61
-136 -74 l-43 -7 18 34 c42 78 61 97 106 101 79 7 87 7 87 1z m-3372 -133 c38
-26 35 -37 -16 -51 -46 -12 -89 -55 -106 -105 l-13 -37 -24 33 c-19 27 -24 46
-23 94 0 61 13 93 58 143 l21 23 35 -39 c19 -22 50 -49 68 -61z m4503 -24 c16
-58 -15 -157 -48 -157 -7 0 -16 12 -19 28 -4 15 -15 39 -25 53 -17 25 -32 33
-103 59 l-28 10 38 28 c22 16 53 45 69 65 l30 36 38 -42 c20 -23 42 -59 48
-80z m-2893 -37 l23 -30 -49 0 c-35 0 -54 5 -66 19 -16 17 -16 19 4 24 12 3
20 13 20 26 0 20 1 20 23 6 13 -8 33 -28 45 -45z m1187 12 c16 -8 16 -10 0
-25 -16 -17 -105 -25 -105 -10 0 4 17 24 37 45 34 35 38 37 45 19 4 -11 14
-23 23 -29z m-1433 -23 c24 -13 57 -83 58 -121 0 -33 -24 -37 -70 -13 -31 16
-38 31 -42 85 -3 57 13 71 54 49z m1646 -40 c4 -57 -22 -92 -77 -107 -22 -5
-42 -8 -44 -5 -3 2 6 34 19 70 13 36 24 68 24 70 0 7 45 22 60 20 10 -2 16
-16 18 -48z m-2110 9 c12 -15 35 -98 29 -104 -2 -2 -21 10 -43 27 -21 18 -63
43 -91 56 -29 13 -53 26 -53 29 0 11 148 3 158 -8z m232 2 c50 0 57 -8 71 -78
19 -91 15 -93 -118 -46 -38 14 -42 19 -48 57 -4 23 -9 51 -12 61 -5 17 -1 18
33 13 22 -4 55 -7 74 -7z m2154 -42 c-8 -64 -18 -77 -81 -94 -26 -7 -58 -16
-70 -20 -22 -6 -23 -4 -23 45 0 29 7 65 15 81 13 25 21 29 67 33 29 2 63 4 76
5 22 2 22 0 16 -50z m241 21 c-33 -16 -77 -43 -97 -59 -20 -17 -39 -30 -43
-30 -7 0 4 45 21 88 l13 32 83 -1 83 0 -60 -30z m-1834 -101 c7 -13 16 -36 20
-53 4 -16 11 -40 14 -52 7 -22 5 -23 -43 -23 -87 0 -113 9 -128 46 -8 18 -14
49 -14 69 l0 35 70 0 c61 0 71 -3 81 -22z m1085 -15 c-15 -81 -25 -100 -58
-107 -17 -3 -52 -6 -79 -6 -58 0 -60 6 -27 92 l23 58 74 0 73 0 -6 -37z
m-1374 -100 c21 -3 42 -11 46 -17 13 -15 31 -139 23 -148 -7 -8 -22 -4 -120
30 l-43 16 6 59 c7 69 12 81 35 72 9 -4 33 -9 53 -12z m1588 -13 c0 -16 5 -30
10 -30 12 0 13 -50 2 -66 -19 -29 -150 -70 -158 -50 -4 10 21 145 28 150 2 2
75 18 111 25 4 0 7 -12 7 -29z m-1799 -46 c14 -37 6 -39 -15 -4 -10 17 -13 30
-6 30 6 0 15 -12 21 -26z m1959 21 c0 -2 -9 -19 -20 -37 -22 -36 -27 -25 -8
17 10 21 28 35 28 20z m-3378 -57 c72 -16 78 -23 40 -54 -27 -23 -32 -33 -32
-72 l0 -45 48 6 c26 3 73 20 105 38 74 40 89 37 209 -40 l93 -60 -49 -20 c-26
-12 -65 -21 -87 -21 -39 0 -39 0 -39 -40 0 -37 2 -39 36 -46 43 -8 147 2 174
16 10 5 35 10 54 10 30 0 51 -13 136 -86 55 -47 100 -89 100 -93 0 -11 -63
-31 -99 -31 -31 0 -32 -1 -29 -37 l3 -38 121 -5 c133 -6 134 -6 223 -86 58
-52 57 -54 -12 -69 -26 -5 -28 -9 -25 -48 3 -38 6 -42 33 -45 17 -2 62 2 102
8 66 12 75 11 100 -6 15 -10 44 -27 63 -37 54 -29 56 -34 16 -57 -32 -19 -36
-27 -36 -61 l0 -39 50 0 c38 0 66 9 116 35 78 42 98 44 89 13 -17 -59 -38 -90
-71 -104 -69 -29 -113 -17 -234 63 -91 60 -160 88 -265 107 -122 22 -214 56
-249 91 -9 9 -16 31 -16 48 0 29 -9 37 -78 84 -42 28 -91 58 -108 67 -17 8
-36 22 -43 30 -12 14 -10 16 13 16 22 0 26 4 26 29 0 16 -7 34 -15 41 -15 13
-27 16 -165 44 -202 42 -341 86 -270 86 13 0 24 10 31 27 18 49 7 56 -79 50
-42 -3 -102 -11 -132 -16 -30 -6 -79 -14 -107 -17 l-53 -7 0 52 0 51 -35 0
c-26 0 -41 -7 -59 -27 -13 -16 -65 -77 -117 -138 -177 -209 -432 -448 -547
-512 -39 -23 -35 -14 28 55 51 56 138 178 202 283 9 14 51 92 93 173 90 176
126 233 190 304 48 53 138 113 189 126 27 7 28 6 20 -21 -4 -15 -8 -50 -9 -78
0 -48 1 -50 30 -53 27 -2 35 4 75 64 25 37 56 75 69 85 28 22 101 25 183 7z
m2181 -50 c47 -40 43 -58 -19 -87 -66 -31 -78 -28 -92 24 -16 60 -15 82 3 89
8 3 15 12 15 21 0 14 3 14 28 1 15 -8 44 -30 65 -48z m2786 30 c16 -18 45 -55
64 -83 30 -44 38 -50 68 -50 32 0 34 2 37 39 2 22 -1 49 -6 60 -32 66 -24 69
64 25 137 -69 197 -152 402 -554 29 -56 149 -230 198 -285 84 -96 85 -97 39
-71 -134 77 -407 342 -614 595 -58 71 -65 76 -102 76 l-39 0 0 -51 0 -52 -42
6 c-24 3 -72 11 -108 18 -36 7 -99 13 -140 13 l-75 1 0 -35 c0 -31 4 -36 30
-41 20 -4 25 -8 15 -12 -30 -12 -196 -55 -260 -66 -139 -26 -196 -46 -203 -73
-8 -30 2 -47 31 -50 25 -3 24 -5 -23 -32 -27 -16 -83 -52 -122 -79 -66 -45
-73 -53 -73 -83 0 -61 -74 -100 -264 -139 -122 -24 -196 -54 -280 -113 -102
-71 -165 -87 -230 -55 -24 11 -40 28 -51 55 -18 45 -19 68 -4 68 15 0 78 -30
111 -52 20 -14 41 -18 80 -16 51 3 53 4 56 34 3 25 -3 36 -33 59 -21 15 -33
31 -28 36 5 5 36 25 68 45 63 38 61 38 182 18 23 -3 53 -4 67 0 22 5 26 12 26
46 0 37 -2 39 -37 46 -66 12 -66 16 0 75 87 78 98 83 181 76 39 -3 91 -2 116
1 44 7 45 8 45 42 0 30 -4 35 -25 38 -42 4 -100 22 -100 31 0 9 84 90 152 145
51 41 68 43 163 17 55 -15 148 -14 169 2 12 9 17 23 14 42 -3 28 -6 30 -62 37
-32 4 -70 15 -83 23 l-24 16 28 22 c43 35 146 95 174 102 19 5 47 -4 102 -30
51 -25 86 -35 109 -33 30 3 33 6 36 39 3 31 -2 41 -34 68 -20 18 -34 35 -31
37 14 14 109 32 169 33 63 1 68 -1 97 -31z m-2289 7 c0 -8 9 -15 20 -15 24 0
25 -8 3 -77 -18 -56 -25 -60 -70 -41 -52 22 -82 48 -76 64 6 15 100 84 115 84
5 0 8 -7 8 -15z m-756 -37 c9 -12 16 -32 16 -45 0 -12 5 -25 10 -28 6 -3 10
-22 10 -42 l0 -35 -47 7 c-89 13 -91 15 -95 94 l-3 71 47 0 c37 0 50 -5 62
-22z m1034 -50 l-3 -73 -50 -12 c-27 -6 -61 -12 -73 -12 -22 -1 -23 1 -17 42
7 41 27 89 47 115 6 6 30 12 55 12 l44 0 -3 -72z m-1376 -75 c24 -29 29 -54
17 -90 -12 -37 -24 -36 -34 4 -3 15 -15 39 -26 54 -10 15 -19 32 -19 38 0 18
45 13 62 -6z m1671 11 c3 -3 -8 -27 -24 -52 -16 -25 -29 -57 -29 -71 -1 -25
-1 -25 -15 -7 -20 27 -19 95 2 118 15 17 53 24 66 12z m-933 -72 c0 -25 -10
-54 -31 -87 l-31 -49 -24 59 c-13 32 -22 60 -19 63 7 7 89 50 98 51 4 1 7 -16
7 -37z m247 -16 c2 -2 -6 -21 -17 -44 -11 -22 -20 -45 -20 -51 0 -5 -4 -12 -9
-16 -17 -10 -61 79 -61 124 l0 41 53 -26 c28 -15 53 -27 54 -28z m503 -36 c0
-51 11 -86 43 -133 21 -30 16 -47 -7 -28 -29 24 -56 100 -56 156 0 30 5 55 10
55 6 0 10 -22 10 -50z m-1340 -17 c0 -17 -4 -35 -10 -38 -5 -3 -10 -16 -10
-27 0 -21 -45 -88 -59 -88 -4 0 7 30 26 66 21 43 33 81 33 108 0 30 3 37 10
26 5 -8 10 -29 10 -47z m1220 -29 c0 -12 -7 -27 -16 -35 -27 -23 -70 -92 -86
-139 l-15 -45 -18 29 c-23 35 -32 144 -16 184 11 25 19 30 74 38 66 10 77 5
77 -32z m-983 13 c23 -22 28 -122 9 -172 -17 -43 -46 -62 -46 -30 0 25 -46
108 -74 134 -18 17 -26 35 -26 59 l0 35 63 -7 c34 -4 67 -13 74 -19z m157 -42
c24 -45 29 -65 27 -120 l-2 -65 39 0 c32 0 41 -5 50 -25 22 -48 -33 -132 -114
-173 l-42 -21 -11 77 c-10 66 -9 88 5 142 11 42 15 92 12 151 -1 49 -1 89 2
89 3 0 19 -25 34 -55z m561 -58 c1 -80 5 -122 17 -148 14 -33 14 -42 -1 -116
l-16 -80 -35 19 c-43 23 -108 93 -116 124 -4 13 -3 35 0 49 6 22 12 25 52 25
l47 0 -6 53 c-5 54 11 119 40 164 9 13 16 23 17 23 0 0 1 -51 1 -113z m-272
-34 c19 -23 21 -40 22 -142 0 -97 -3 -121 -18 -143 -22 -34 -42 -36 -60 -5
-11 16 -14 56 -12 149 1 108 5 131 20 148 23 25 23 25 48 -7z m-2480 -64 c56
-29 58 -34 27 -112 -15 -40 -43 -109 -60 -155 -32 -82 -61 -116 -128 -151 -32
-17 -28 -74 6 -79 12 -2 22 -7 22 -11 0 -11 -97 -225 -165 -363 -26 -53 -84
-108 -114 -108 -30 0 -34 -86 -4 -92 11 -2 -4 -31 -52 -103 -37 -55 -64 -89
-60 -75 4 14 13 59 20 100 8 41 36 163 64 270 27 107 58 224 67 260 9 36 20
69 25 75 5 5 9 16 9 25 0 40 114 357 165 457 27 54 23 52 115 66 14 3 29 5 33
6 5 0 18 -4 30 -10z m1882 -31 c10 -24 21 -72 24 -108 6 -62 7 -65 34 -68 36
-4 34 -15 -12 -61 -27 -27 -53 -42 -90 -51 -66 -16 -84 -9 -71 25 6 15 10 74
10 132 l0 106 38 33 c20 18 40 33 43 34 4 0 15 -19 24 -42z m1212 5 l41 -38 3
-133 c4 -129 4 -132 -17 -132 -39 0 -109 31 -141 62 -39 38 -41 54 -9 62 20 5
24 13 29 70 5 53 37 146 51 146 1 0 21 -17 43 -37z m1958 12 c48 -30 199 -447
280 -775 9 -36 21 -81 26 -100 5 -19 14 -57 19 -85 12 -60 23 -110 44 -190 29
-115 17 -114 -52 2 -43 72 -50 88 -37 96 9 4 15 22 15 41 0 31 -5 36 -53 60
-53 25 -54 27 -114 153 -69 145 -143 304 -143 309 0 1 12 4 28 6 22 2 28 8 30
35 3 28 -1 34 -35 52 -69 37 -82 54 -132 178 -71 173 -74 187 -47 211 11 11
28 22 36 25 24 8 113 -4 135 -18z m-5428 -12 c-8 -16 -22 -55 -32 -88 -10 -33
-21 -64 -25 -70 -3 -5 -12 -30 -19 -55 -23 -82 -40 -109 -88 -144 -26 -20 -53
-36 -60 -36 -13 0 -28 -55 -18 -70 3 -5 22 -10 41 -10 19 0 34 -4 34 -8 0 -15
-94 -257 -133 -342 -14 -30 -34 -75 -45 -100 -20 -43 -40 -61 -117 -100 -39
-19 -49 -74 -15 -85 20 -6 20 -7 3 -37 -27 -46 -148 -173 -207 -215 -28 -21
-57 -44 -65 -51 -13 -12 -17 -12 -28 4 -7 10 -13 20 -13 23 0 3 34 67 76 141
137 245 226 448 301 685 14 44 28 87 33 95 4 9 11 36 15 60 7 40 21 59 124
165 64 66 118 122 121 125 3 3 32 35 64 73 32 37 60 67 62 67 3 0 -2 -12 -9
-27z m5736 -67 c66 -72 126 -136 200 -212 76 -79 79 -84 98 -163 43 -179 196
-553 299 -731 64 -111 151 -280 144 -280 -11 0 -125 80 -178 124 -27 23 -80
79 -118 125 -63 77 -68 86 -50 92 54 20 39 70 -31 102 -30 13 -63 37 -74 53
-33 47 -174 391 -190 462 -5 19 -1 22 25 22 62 0 53 60 -15 105 -26 17 -55 42
-65 55 -17 24 -105 258 -115 310 -5 25 -5 25 18 -4 13 -16 37 -43 52 -60z
m-5060 -60 c30 -10 107 -85 107 -104 0 -3 -27 -61 -60 -129 -33 -67 -60 -126
-60 -132 0 -17 -69 -68 -111 -81 -35 -12 -39 -16 -39 -47 0 -29 5 -36 29 -44
l29 -10 -17 -37 c-9 -20 -33 -68 -54 -107 -72 -137 -82 -149 -131 -159 -26 -6
-28 -8 -24 -48 4 -35 -1 -51 -23 -83 -32 -47 -79 -93 -79 -77 0 6 4 21 9 34 5
13 14 52 20 88 7 36 21 99 33 140 22 82 152 477 172 525 7 17 19 48 26 70 7
22 21 58 30 80 10 22 28 64 41 92 24 57 23 57 102 29z m4407 -23 c13 -27 31
-68 40 -93 41 -106 108 -288 119 -325 7 -22 21 -62 30 -90 63 -175 150 -509
137 -523 -7 -6 -48 36 -83 86 -9 12 -16 44 -17 69 -1 44 -3 47 -32 55 -43 11
-53 25 -141 201 -45 90 -47 107 -12 107 15 0 19 7 18 38 0 35 -3 38 -61 67
-67 33 -66 32 -156 224 l-49 105 31 42 c24 32 44 47 86 63 30 10 58 20 61 20
4 1 17 -20 29 -46z m-2372 -156 c6 -49 -58 -142 -122 -176 -35 -19 -42 -9 -50
69 l-6 66 66 24 c36 14 70 31 76 38 16 19 33 9 36 -21z m318 -2 c38 -19 75
-35 83 -35 11 0 13 -14 7 -72 -3 -39 -8 -74 -10 -76 -10 -9 -51 12 -86 44 -40
36 -86 133 -76 159 7 19 3 20 82 -20z m-622 -55 c20 -7 26 -17 26 -38 0 -26
-15 -52 -31 -52 -4 0 -10 16 -13 36 -4 19 -10 42 -13 50 -6 17 -3 17 31 4z
m866 -56 c-10 -28 -14 -33 -26 -23 -23 19 -18 68 9 78 28 11 33 -6 17 -55z
m1547 -124 c45 -93 73 -159 73 -167 0 -5 13 -51 30 -103 67 -212 80 -270 62
-270 -18 0 -127 120 -183 202 -32 47 -59 89 -59 92 0 3 7 6 15 6 9 0 30 7 46
16 25 13 30 20 27 47 -3 29 -7 32 -46 39 -24 4 -64 20 -90 36 -38 23 -54 43
-93 118 l-48 89 82 41 82 42 35 -62 c20 -33 50 -90 67 -126z m-3791 145 c41
-19 74 -38 74 -40 0 -16 -88 -173 -105 -187 -33 -28 -102 -58 -135 -58 -28 0
-30 -2 -30 -38 0 -36 3 -40 40 -52 22 -7 40 -16 40 -20 0 -11 -75 -125 -107
-162 -43 -51 -124 -128 -134 -128 -13 0 -12 4 17 105 14 50 29 106 33 125 35
145 193 489 224 490 5 0 42 -16 83 -35z m1814 25 c0 -17 48 -114 73 -148 24
-32 24 -35 11 -79 -20 -65 -68 -133 -94 -133 -13 0 -72 72 -85 104 -27 67 -26
82 5 121 17 21 37 62 46 92 9 32 21 53 30 53 8 0 14 -4 14 -10z m-562 -69 c16
-52 15 -79 -7 -126 -38 -84 -120 -135 -216 -135 -30 0 -57 4 -60 10 -3 5 6 35
20 66 15 32 31 92 38 135 l11 78 85 4 c48 1 93 4 102 5 10 1 20 -11 27 -37z
m1309 25 c1 -1 7 -31 12 -66 6 -36 22 -94 36 -130 14 -36 23 -70 20 -77 -8
-23 -106 -16 -163 12 -78 37 -143 140 -128 200 19 74 14 71 122 67 55 -2 100
-5 101 -6z m-2233 -160 c-21 -69 -82 -173 -114 -194 -42 -28 -50 -47 -38 -84
9 -24 5 -34 -25 -75 -20 -27 -49 -61 -66 -77 -39 -37 -40 -28 -7 107 24 96 56
167 143 319 l45 78 34 -26 c27 -21 33 -32 28 -48z m3027 47 c7 -16 27 -50 43
-78 55 -94 104 -200 119 -255 16 -58 31 -170 22 -170 -2 0 -29 30 -60 67 -54
65 -55 68 -49 117 l5 51 -46 27 c-25 15 -48 35 -52 45 -3 10 -20 50 -38 89
l-33 72 31 31 c18 17 34 31 38 31 3 0 12 -12 20 -27z m-5026 -124 c-58 -143
-166 -363 -218 -446 -36 -58 -41 -62 -53 -46 -20 27 -18 33 35 145 58 123 102
236 131 338 12 41 27 80 33 87 17 17 111 52 115 43 1 -4 -18 -58 -43 -121z
m7000 89 c13 -6 26 -27 34 -56 7 -26 17 -56 21 -67 5 -11 14 -38 21 -60 6 -22
22 -65 35 -96 13 -31 24 -60 24 -63 0 -26 181 -372 259 -496 l15 -25 -23 20
c-109 93 -326 462 -430 730 -24 61 -47 120 -52 132 l-8 23 42 -16 c23 -9 51
-20 62 -26z m-3095 -16 c22 -18 22 -21 11 -73 -15 -68 -33 -129 -38 -129 -3 0
-24 14 -49 30 -39 28 -94 93 -94 112 0 5 27 8 60 8 52 0 60 2 60 19 0 25 10
51 20 51 4 0 18 -8 30 -18z m-818 -19 c3 -27 6 -28 65 -31 l61 -3 -13 -26
c-33 -63 -129 -139 -145 -114 -4 7 -12 48 -19 92 -13 86 -7 109 30 109 12 0
19 -9 21 -27z m-827 -75 c9 -8 -90 -212 -135 -278 -21 -30 -52 -68 -69 -85
l-32 -30 6 45 c4 25 9 52 12 60 3 8 11 38 18 65 13 47 42 115 93 212 l21 41
40 -12 c22 -6 43 -14 46 -18z m2555 -58 c47 -93 86 -206 95 -272 8 -62 -8 -57
-67 19 -46 60 -170 301 -162 315 3 4 15 8 27 8 12 0 29 4 37 9 21 14 27 7 70
-79z m-2330 0 c0 -27 5 -42 15 -45 8 -3 22 -7 29 -9 12 -4 11 -12 -6 -43 -19
-35 -24 -38 -59 -35 -30 3 -40 0 -52 -20 -25 -38 -68 -176 -87 -278 -10 -52
-36 -147 -58 -210 -48 -139 -97 -297 -113 -365 -17 -73 -26 -75 -35 -9 -9 72
-3 98 86 394 10 36 22 79 25 95 6 32 29 113 51 180 7 22 33 85 59 140 26 55
54 116 63 135 23 50 63 110 73 110 5 0 9 -18 9 -40z m2057 -72 c17 -35 44 -90
59 -123 14 -33 35 -78 46 -100 10 -22 27 -74 38 -115 50 -200 64 -249 123
-445 19 -62 24 -94 20 -143 -3 -34 -9 -65 -14 -68 -5 -3 -9 1 -9 9 0 7 -12 52
-26 98 -14 46 -39 129 -55 184 -38 125 -47 150 -70 202 -11 24 -19 54 -19 68
0 52 -50 234 -88 318 l-26 59 -42 -4 c-40 -3 -44 -1 -58 30 -17 35 -14 52 9
52 18 0 35 31 35 67 l1 28 22 -27 c12 -15 36 -56 54 -90z m-1186 -5 c28 -52
-34 -148 -124 -192 -26 -12 -51 -20 -57 -16 -5 3 -10 35 -10 70 0 62 1 64 43
100 24 20 54 55 68 76 l24 40 22 -27 c12 -15 27 -38 34 -51z m299 57 c0 -5 27
-38 59 -73 58 -61 60 -65 63 -124 1 -34 0 -65 -4 -68 -8 -8 -96 30 -121 53
-27 23 -64 84 -69 110 -1 11 10 41 26 66 27 43 46 58 46 36z m-715 -37 c18
-112 26 -133 51 -133 28 0 31 -18 10 -58 -31 -59 -101 -102 -167 -102 -36 0
-40 2 -33 18 4 9 9 70 11 136 l2 119 53 27 c29 15 56 28 60 29 4 0 10 -16 13
-36z m1183 -13 c6 0 9 -41 8 -102 0 -57 3 -120 7 -142 l8 -39 -50 5 c-69 7
-127 46 -152 104 -24 57 -24 54 6 54 30 0 55 51 55 115 0 23 3 44 6 48 3 3 27
-6 54 -19 26 -13 52 -24 58 -24z m-1408 -104 c0 -45 -34 -136 -68 -183 -16
-22 -21 -43 -19 -79 2 -57 -18 -106 -62 -148 l-30 -29 -9 24 c-35 92 -36 89
18 190 63 117 140 278 140 293 0 6 7 2 15 -8 8 -11 15 -38 15 -60z m1550 52
c0 -12 144 -301 165 -332 19 -25 19 -50 1 -101 -24 -67 -49 -58 -96 36 -22 43
-28 65 -23 92 4 28 -1 46 -23 84 -16 26 -35 61 -41 77 -13 29 -18 123 -7 150
6 17 24 12 24 -6z m-776 -90 c3 -14 22 -47 41 -73 l36 -46 -20 -27 c-10 -15
-31 -38 -45 -51 l-26 -25 -40 39 c-48 47 -59 74 -37 90 20 14 66 112 68 140
l0 20 9 -20 c5 -11 11 -32 14 -47z m-1893 -178 c-6 -28 -11 -78 -11 -111 l0
-61 50 4 c35 2 50 -1 50 -9 0 -25 -71 -229 -89 -256 -18 -28 -120 -120 -153
-138 -23 -13 -23 -6 7 82 52 151 82 273 105 432 9 61 36 125 47 113 3 -3 0
-28 -6 -56z m3808 -144 c17 -90 36 -177 42 -192 10 -32 56 -173 69 -216 l9
-28 -41 23 c-51 28 -145 131 -157 171 -5 17 -21 64 -35 104 -14 41 -26 84 -26
95 0 20 4 22 51 18 l52 -3 -7 68 c-3 38 -9 89 -12 114 -4 39 -3 43 9 28 8 -10
28 -91 46 -182z m-2315 109 c-3 -11 -17 -31 -30 -45 l-24 -25 0 46 c0 54 14
73 41 56 13 -8 17 -18 13 -32z m206 11 c0 -7 13 -27 30 -46 16 -19 29 -40 30
-46 0 -5 -16 -26 -35 -44 -41 -40 -45 -37 -70 47 -20 70 -20 110 3 115 20 5
42 -9 42 -26z m405 20 c17 -12 18 -18 6 -70 -7 -30 -19 -69 -28 -86 -16 -34
-24 -32 -69 20 l-22 25 27 30 c15 17 33 45 40 63 15 36 19 38 46 18z m215 -58
c0 -21 -4 -38 -9 -38 -9 0 -61 71 -61 83 0 4 7 7 15 7 8 0 15 5 15 12 0 6 9 3
20 -7 13 -12 20 -31 20 -57z m-3158 -67 c-17 -59 -32 -164 -32 -225 0 -56 0
-56 31 -56 19 0 52 15 91 41 69 47 68 55 11 -101 -68 -181 -86 -213 -162 -278
-38 -33 -78 -63 -89 -66 -20 -7 -34 -48 -25 -72 3 -7 15 -17 29 -21 l24 -8
-33 -41 c-42 -53 -102 -124 -138 -165 l-29 -33 13 45 c8 24 43 123 80 219 56
150 85 242 137 430 5 19 14 62 20 95 6 33 15 78 19 100 5 22 14 65 21 95 6 30
17 69 23 85 9 24 12 26 15 11 2 -11 -1 -35 -6 -55z m-393 -2 c-24 -116 -29
-147 -40 -241 -6 -54 -9 -104 -5 -113 6 -18 58 -20 88 -4 19 10 20 9 13 -7 -4
-11 -16 -44 -27 -74 -11 -30 -27 -71 -35 -90 -8 -19 -19 -44 -24 -55 -45 -107
-81 -174 -101 -193 l-24 -22 -24 47 -23 46 38 121 c21 67 46 146 56 176 9 30
27 100 39 155 12 55 26 111 30 125 5 14 12 50 15 80 6 53 24 114 31 107 2 -2
-1 -28 -7 -58z m1565 -11 c7 -37 8 -38 53 -38 37 0 44 -3 39 -16 -3 -8 -16
-50 -28 -92 -27 -95 -51 -135 -118 -195 -54 -49 -77 -59 -65 -29 4 9 13 40 20
67 8 28 21 77 30 110 14 50 43 216 45 250 1 19 17 -20 24 -57z m912 0 c4 -35
8 -69 9 -77 0 -16 -83 -66 -93 -56 -9 9 -16 161 -8 180 3 10 19 15 44 15 l39
0 9 -62z m1356 25 c2 -62 -3 -147 -11 -155 -11 -12 -86 36 -85 55 0 9 1 44 2
77 l2 60 45 0 45 0 2 -37z m2008 18 c5 -11 14 -52 20 -92 24 -168 96 -440 170
-639 18 -47 42 -114 55 -150 13 -36 30 -82 40 -103 26 -62 12 -64 -39 -5 -58
68 -136 170 -136 181 0 4 11 7 25 7 22 0 25 4 25 35 0 25 -6 37 -22 46 -33 17
-107 78 -145 119 -18 19 -47 68 -64 109 -38 92 -98 261 -92 261 2 0 29 -18 59
-41 42 -31 62 -39 87 -37 l32 3 0 60 c-1 33 -7 89 -14 125 -26 137 -27 168 -1
121z m401 -72 c17 -108 22 -154 16 -149 -6 5 -27 106 -42 195 -5 30 -4 37 5
29 6 -6 16 -40 21 -75z m-1541 -64 c11 -64 34 -158 60 -245 13 -47 13 -53 -5
-42 -29 16 -117 106 -132 135 -16 32 -63 175 -63 194 0 7 18 13 42 15 39 3 43
6 52 37 l10 34 12 -29 c7 -16 17 -60 24 -99z m-1902 16 c7 -21 12 -42 12 -47
0 -26 -106 -114 -137 -114 -15 0 -36 67 -31 100 2 17 12 26 33 32 17 4 46 21
65 38 19 16 38 30 41 30 3 0 11 -17 17 -39z m751 -32 c17 -6 31 -18 31 -26 0
-29 -23 -103 -32 -103 -22 0 -87 42 -116 74 -28 33 -30 38 -20 73 15 55 14 55
63 22 24 -16 58 -34 74 -40z m1778 31 c29 -16 62 -30 72 -30 21 0 23 -3 56
-140 9 -36 30 -101 46 -146 16 -44 29 -88 29 -98 0 -16 -3 -15 -31 5 -17 12
-54 45 -83 73 -48 47 -55 61 -95 181 -54 161 -61 185 -54 185 4 0 30 -13 60
-30z m-6103 -34 c-40 -48 -47 -44 -17 10 17 31 29 42 36 35 7 -7 1 -21 -19
-45z m1716 36 c0 -18 -31 -123 -49 -167 -5 -11 -14 -38 -21 -60 -16 -52 -61
-111 -120 -157 -60 -48 -87 -59 -72 -32 20 40 75 214 104 334 12 51 15 55 48
61 19 3 49 14 65 23 38 20 45 20 45 -2z m2080 -106 c-23 -55 -54 -98 -64 -89
-12 12 -7 103 7 103 6 0 26 11 42 24 38 31 41 22 15 -38z m-950 26 c0 -9 9
-28 19 -41 17 -22 24 -23 70 -18 28 3 65 15 80 27 38 26 41 25 41 -9 0 -42
-39 -109 -85 -146 -41 -33 -85 -59 -90 -53 -1 2 -16 30 -33 63 -38 75 -47 123
-32 169 12 36 30 40 30 8z m1163 -1 c32 -20 37 -28 37 -59 0 -57 -13 -69 -37
-35 -29 41 -53 90 -53 108 0 19 1 19 53 -14z m947 -17 c10 -31 9 -44 -10 -97
-12 -34 -31 -77 -42 -94 l-19 -33 -37 19 c-48 25 -78 54 -113 109 -25 40 -40
102 -24 102 3 0 27 -11 53 -25 79 -42 137 -30 156 33 10 32 23 27 36 -14z
m2100 -61 c26 -122 119 -418 179 -572 12 -29 19 -56 17 -59 -6 -5 -78 51 -127
101 -35 34 -75 116 -145 292 -47 118 -54 145 -30 126 8 -7 32 -11 53 -9 l38 3
-3 85 c-4 87 4 101 18 33z m-3732 -30 c12 -56 6 -70 -59 -130 -45 -42 -88 -68
-97 -59 -3 4 -8 44 -10 90 -3 63 -1 85 9 92 12 8 124 50 140 53 3 1 11 -20 17
-46z m1202 21 c19 -7 43 -13 53 -14 10 0 22 -12 28 -27 12 -31 4 -142 -11
-157 -16 -16 -68 14 -115 66 -49 54 -51 61 -33 120 9 29 15 37 27 32 9 -4 32
-13 51 -20z m-4048 -37 c-6 -12 -13 -38 -17 -57 -3 -19 -12 -48 -19 -65 l-12
-30 -28 58 c-16 32 -26 60 -24 63 3 2 27 20 54 39 49 35 66 32 46 -8z m6930
-35 c59 -35 111 -69 116 -75 8 -11 24 -61 107 -332 76 -248 98 -308 165 -450
74 -158 97 -209 111 -250 7 -22 16 -44 19 -50 4 -5 12 -30 19 -55 8 -25 22
-73 33 -108 11 -34 18 -67 16 -74 -5 -13 -180 210 -203 259 -9 18 -20 35 -25
38 -5 3 -15 18 -23 33 -8 15 -39 72 -70 127 -30 55 -53 103 -51 107 3 5 21 8
40 8 32 0 34 2 34 35 0 30 -6 38 -42 61 -90 56 -130 96 -159 160 -43 94 -109
272 -109 292 0 10 -4 22 -8 28 -5 5 -19 43 -31 84 -12 41 -30 103 -41 136 -21
64 -25 98 -12 92 4 -1 55 -31 114 -66z m-3782 7 c0 -11 4 -29 10 -39 12 -22
-30 -66 -96 -102 -51 -26 -58 -22 -70 46 -7 41 0 51 46 63 14 3 41 17 60 30
43 28 50 29 50 2z m270 8 c0 -7 14 -29 31 -50 36 -44 34 -70 -10 -119 l-29
-33 -22 20 c-12 11 -31 37 -41 57 l-19 37 38 51 c37 50 52 61 52 37z m374 -47
c27 -10 28 -13 24 -61 -3 -27 -8 -52 -12 -56 -10 -10 -102 37 -131 67 -25 26
-26 31 -15 69 l11 41 47 -24 c26 -14 60 -30 76 -36z m-1388 -158 c67 5 74 3
74 -14 0 -45 -108 -198 -140 -198 -11 0 -45 65 -79 152 -21 52 -22 62 -10 107
l13 50 34 -51 34 -50 74 4z m2164 9 c0 -46 -75 -221 -95 -221 -18 0 -91 82
-114 127 -12 23 -21 53 -21 67 0 24 2 24 54 19 78 -8 97 0 126 51 l24 45 13
-31 c7 -16 13 -42 13 -57z m-2806 21 c21 -3 26 -7 21 -20 -9 -26 -86 -152 -96
-158 -12 -7 -11 35 0 72 5 16 15 58 22 94 10 51 14 59 19 40 4 -18 14 -26 34
-28z m-2310 23 c3 -10 19 -15 45 -15 40 0 40 0 35 -32 -14 -74 -101 -313 -170
-466 -13 -29 -24 -56 -24 -60 0 -15 -85 -90 -143 -127 -53 -33 -58 -39 -55
-68 3 -29 7 -32 40 -35 l36 -3 -32 -57 c-71 -125 -182 -293 -276 -416 -68 -90
-256 -306 -266 -306 -6 0 89 177 174 325 41 72 83 144 93 162 10 17 30 50 44
73 44 69 189 360 235 471 24 57 47 108 52 113 4 6 8 16 8 23 0 7 8 32 19 56
10 23 29 69 41 102 13 33 27 64 32 70 4 5 8 15 8 23 0 21 51 145 68 165 19 21
28 22 36 2z m5670 -118 c15 -75 14 -83 -3 -73 -14 9 -91 139 -91 154 0 7 9 12
21 12 13 0 23 8 27 22 5 21 7 20 19 -10 8 -19 20 -66 27 -105z m2265 123 c10
-5 26 -31 35 -57 10 -26 22 -57 27 -68 5 -11 17 -45 28 -75 22 -66 119 -305
151 -375 76 -165 150 -312 196 -393 30 -52 54 -96 54 -99 0 -3 8 -17 19 -31
10 -15 28 -43 39 -62 11 -19 36 -64 57 -100 82 -144 165 -303 161 -308 -19
-18 -366 420 -444 558 -10 19 -40 69 -66 111 -25 42 -46 79 -46 83 0 3 11 6
24 6 41 0 56 11 56 40 0 22 -10 34 -57 63 -115 72 -146 115 -227 322 -16 39
-31 77 -35 85 -4 8 -18 49 -31 90 -12 41 -26 84 -30 95 -4 11 -12 35 -18 53
l-10 32 44 0 c37 0 44 3 44 20 0 23 4 24 29 10z m-4125 -74 c18 -33 18 -37 2
-60 -9 -14 -30 -32 -46 -41 -29 -15 -30 -15 -45 14 -8 17 -15 38 -15 48 0 17
69 85 80 78 3 -2 13 -19 24 -39z m-364 17 c0 -24 23 -83 32 -83 20 0 4 -17
-29 -31 -64 -28 -102 -33 -109 -15 -14 37 6 84 48 115 48 35 58 38 58 14z
m714 -4 c31 -18 36 -26 36 -57 0 -21 -7 -45 -15 -56 -14 -18 -15 -18 -47 2
-54 34 -62 55 -35 96 12 19 23 35 24 36 1 0 18 -9 37 -21z m356 -9 c40 -32 65
-85 54 -113 -8 -22 -22 -21 -89 4 -55 21 -62 27 -47 45 5 5 15 28 22 52 7 23
15 42 18 42 2 0 21 -14 42 -30z m-2576 -10 l36 0 -21 -36 c-11 -21 -37 -62
-58 -93 -105 -158 -120 -160 -71 -11 10 30 24 78 31 107 11 45 15 51 30 42 10
-5 34 -9 53 -9z m4114 -57 c59 -189 63 -210 29 -173 -36 39 -147 209 -147 225
0 2 17 6 38 8 20 2 42 4 48 5 6 1 20 -28 32 -65z m-5729 -75 c38 -96 49 -135
45 -158 -4 -17 -11 -33 -15 -36 -5 -3 -9 -14 -9 -25 0 -26 -72 -103 -142 -151
-52 -35 -58 -42 -58 -73 0 -33 2 -35 35 -35 19 0 35 -4 35 -8 0 -39 -222 -399
-302 -491 -13 -14 -35 -41 -50 -59 -29 -35 -34 -29 -18 22 75 236 101 304 177
466 92 193 120 271 203 550 40 135 40 134 44 129 2 -2 27 -61 55 -131z m2869
80 l37 -3 3 -65 c3 -68 20 -100 54 -100 10 0 18 -3 18 -7 0 -23 -114 -92 -152
-93 -42 0 -65 123 -42 220 27 111 26 109 36 78 8 -22 16 -27 46 -30z m1597
-28 c22 -68 22 -137 -1 -197 -17 -44 -18 -44 -53 -38 -35 7 -75 30 -119 69
l-24 21 28 5 c37 7 54 41 54 107 0 51 0 52 33 55 22 2 35 10 42 25 12 28 18
21 40 -47z m-3260 10 c19 0 36 -4 39 -8 5 -9 -90 -152 -123 -185 -18 -18 -21
-19 -21 -5 0 10 4 27 9 40 5 13 19 58 32 102 13 43 25 73 27 67 2 -6 19 -11
37 -11z m4904 -42 c25 -59 46 -146 38 -155 -8 -7 -15 1 -87 104 -27 39 -50 76
-50 82 0 6 18 11 40 11 38 0 42 -3 59 -42z m-3919 -11 c0 -30 33 -151 54 -199
14 -34 20 -38 51 -38 33 0 37 4 59 53 13 28 30 74 37 102 l13 50 22 -50 c50
-111 16 -258 -88 -372 -65 -73 -47 -113 51 -113 28 0 51 -2 51 -5 0 -36 -76
-113 -131 -134 -59 -22 -64 -27 -67 -69 -3 -35 -7 -42 -34 -51 -44 -16 -144
-13 -202 4 -27 8 -66 15 -88 15 -37 0 -38 -1 -38 -37 0 -50 45 -166 86 -225
18 -26 30 -49 26 -52 -26 -16 -169 45 -235 100 -18 15 -41 24 -64 24 l-36 0 7
-56 c8 -69 44 -146 91 -198 20 -21 35 -39 33 -40 -33 -18 -84 -36 -103 -36
-13 0 -34 -4 -47 -9 -50 -19 -121 -31 -252 -42 l-136 -12 -28 24 c-54 48 -111
89 -126 89 -45 0 -46 12 -3 54 55 53 77 101 77 168 0 90 -42 125 -135 112 -58
-8 -94 -40 -134 -117 -13 -26 -25 -46 -26 -45 -1 2 -34 64 -72 138 -129 247
-165 315 -175 327 -6 8 4 23 33 50 102 94 249 263 295 339 7 12 9 -18 6 -109
l-4 -127 38 0 c25 0 57 11 87 29 64 37 174 134 218 190 l34 45 3 -102 3 -102
35 0 c49 0 161 64 246 142 46 41 134 152 145 181 5 14 10 -22 13 -98 l5 -120
41 1 c93 2 264 161 330 305 19 44 34 51 34 16z m1483 -13 c26 -32 28 -38 17
-64 -6 -15 -22 -38 -36 -51 -24 -22 -24 -22 -45 -3 -12 10 -30 32 -40 48 -17
28 -17 29 9 67 34 48 59 49 95 3z m-370 -40 c10 -20 27 -38 37 -41 11 -3 20
-9 20 -14 0 -17 -129 -99 -155 -99 -8 0 -25 67 -25 95 0 27 7 37 48 63 26 17
50 31 53 31 3 1 13 -15 22 -35z m760 -22 c9 -8 17 -24 17 -35 0 -16 -16 -74
-26 -95 -4 -8 -76 27 -117 57 -39 29 -44 37 -29 42 9 4 24 20 32 35 26 53 28
54 68 32 20 -12 45 -28 55 -36z m-1383 -103 c0 -11 5 -30 11 -41 23 -42 -59
-150 -144 -192 -17 -8 -33 -13 -36 -11 -2 2 5 23 15 47 10 24 20 70 23 103 l6
59 55 32 c59 33 70 34 70 3z m1940 11 c14 -11 30 -20 36 -20 27 0 54 -42 54
-84 0 -23 7 -65 15 -91 8 -27 12 -51 10 -53 -10 -10 -65 22 -105 61 -65 65
-75 90 -60 154 7 29 16 53 19 53 3 0 17 -9 31 -20z m-1060 -108 c0 -25 -42
-95 -88 -144 -56 -60 -140 -107 -153 -86 -15 23 -10 44 23 89 33 45 68 126 68
156 0 9 15 32 32 50 l33 34 42 -43 c23 -24 42 -49 43 -56z m256 66 c21 -20 34
-42 34 -57 0 -40 22 -93 57 -140 32 -44 46 -111 23 -111 -18 0 -85 37 -119 66
-38 32 -108 131 -113 161 -2 13 11 37 37 66 22 25 42 46 43 46 2 1 19 -13 38
-31z m385 -15 c14 -35 6 -158 -11 -178 -8 -10 -21 -13 -39 -8 -41 9 -114 49
-135 72 l-20 22 66 -7 c62 -6 67 -5 81 17 8 13 18 43 22 67 8 48 21 54 36 15z
m-1106 -32 c22 -68 34 -75 103 -67 l57 7 -31 -32 c-17 -17 -56 -39 -85 -49
-52 -17 -55 -17 -72 0 -15 13 -19 34 -20 91 -3 110 20 133 48 50z m-151 -119
c4 -48 11 -94 16 -102 20 -32 -65 -101 -140 -114 -46 -7 -54 0 -68 56 -18 70
-15 103 15 161 32 62 38 66 83 68 19 0 44 4 55 9 11 5 23 9 26 9 4 1 10 -39
13 -87z m1461 69 l50 -6 34 -69 c32 -68 33 -71 21 -125 -15 -72 -22 -85 -48
-89 -28 -4 -98 28 -140 63 -29 24 -33 33 -27 59 3 17 11 66 17 109 10 64 14
77 27 71 9 -3 39 -9 66 -13z m2661 -58 c14 -32 46 -103 71 -158 25 -55 55
-119 66 -143 11 -23 18 -44 15 -47 -4 -4 -148 198 -148 208 0 3 -25 44 -55 92
-30 48 -52 91 -49 96 3 5 21 9 39 9 32 0 36 -4 61 -57z m-3366 -169 c0 -30
-62 -99 -82 -91 -9 3 -28 26 -43 50 l-26 45 38 50 37 50 37 -41 c21 -23 38
-51 39 -63z m-3521 68 c11 -27 7 -35 -64 -140 -42 -62 -78 -112 -80 -112 -5 0
19 58 65 156 21 45 41 91 45 103 9 29 20 26 34 -7z m2461 -85 c0 -18 7 -57 15
-87 14 -52 13 -55 -7 -77 -31 -34 -103 -63 -153 -63 -25 0 -45 4 -45 8 0 5 14
21 31 38 37 34 79 117 79 157 0 20 8 32 32 47 38 23 48 19 48 -23z m570 37 c0
-25 -49 -99 -97 -145 -57 -56 -101 -84 -155 -100 -27 -7 -28 -6 -28 26 0 34 5
39 89 104 17 13 41 41 53 62 12 22 31 42 43 44 11 2 29 6 40 8 31 7 55 8 55 1z
m955 -32 c22 -30 85 -93 134 -134 25 -21 32 -34 29 -55 -2 -23 -7 -27 -28 -25
-82 11 -225 144 -246 228 -7 25 -6 26 42 19 37 -5 54 -13 69 -33z m500 18 c28
-17 33 -28 39 -71 8 -58 25 -89 73 -136 18 -18 33 -35 33 -38 0 -3 -20 -5 -44
-5 -47 0 -114 25 -155 58 l-24 20 16 68 c10 38 17 81 17 97 0 32 3 33 45 7z
m-4315 -20 c0 -5 24 -60 54 -122 29 -62 70 -149 91 -193 21 -44 61 -129 90
-190 97 -203 98 -207 83 -216 -27 -17 -44 -9 -57 29 -7 20 -19 51 -26 67 -7
17 -32 77 -54 135 -23 58 -48 119 -55 135 -7 17 -19 46 -26 65 -7 19 -23 58
-35 85 -13 28 -30 72 -39 99 -9 26 -23 60 -31 76 -17 33 -19 54 -5 45 6 -3 10
-10 10 -15z m3106 -87 c-15 -56 -116 -156 -190 -187 -55 -23 -76 -21 -76 7 1
30 18 65 60 119 30 39 42 47 93 58 31 7 60 17 63 21 3 5 17 9 31 9 22 0 24 -3
19 -27z m452 0 c52 -15 69 -26 101 -66 39 -47 43 -55 55 -109 7 -32 -6 -36
-64 -15 -87 30 -200 143 -200 201 0 21 4 20 108 -11z m-346 -129 c-4 -25 -63
-114 -109 -165 -39 -43 -98 -86 -146 -107 l-28 -12 3 47 c3 42 6 48 43 70 22
13 47 26 55 30 30 13 119 94 140 129 23 36 47 41 42 8z m349 -158 c52 -25 57
-30 63 -68 4 -23 3 -45 -2 -50 -21 -21 -178 108 -237 196 -74 109 -52 123 43
27 49 -49 97 -88 133 -105z m-1023 46 c34 -2 62 -5 62 -8 0 -3 -14 -25 -30
-48 -21 -29 -32 -59 -38 -101 l-8 -60 -46 2 c-46 1 -96 26 -125 60 -19 24 25
153 83 243 l29 45 5 -65 5 -65 63 -3z m1614 31 c19 -38 41 -94 48 -125 13 -56
12 -58 -11 -77 -33 -28 -101 -53 -130 -49 -20 3 -25 12 -34 63 -7 38 -23 79
-43 108 l-31 47 63 0 c63 0 64 0 70 31 3 17 6 45 6 61 0 43 18 25 62 -59z
m-2102 -37 c0 -3 -5 -17 -11 -33 -6 -15 -13 -62 -17 -103 l-7 -75 -44 -14
c-64 -20 -136 -2 -195 50 -40 35 -86 96 -86 113 0 3 53 6 118 6 109 1 121 3
172 29 56 29 70 34 70 27z m205 -13 c-5 -10 -10 -59 -13 -109 l-4 -90 31 -30
c17 -16 31 -33 31 -38 0 -17 -90 2 -136 29 l-47 27 6 52 c10 90 68 176 119
176 15 0 18 -4 13 -17z m2100 1 c14 -9 25 -21 25 -26 0 -5 8 -22 19 -36 10
-15 24 -51 31 -80 15 -63 8 -74 -65 -108 -45 -22 -115 -32 -115 -18 0 3 13 16
29 30 19 16 32 38 35 62 7 37 -5 142 -19 175 -10 23 26 23 60 1z m192 -1 c50
-33 97 -43 206 -43 71 0 107 -4 107 -11 0 -31 -80 -118 -135 -147 -37 -19
-147 -21 -169 -3 -10 8 -16 29 -16 54 0 37 -9 75 -31 134 -7 18 -3 33 8 33 2
0 16 -8 30 -17z m-1228 -71 c30 -39 32 -45 21 -71 -6 -16 -23 -39 -36 -52 -30
-28 -46 -21 -80 37 l-24 40 38 51 c20 28 40 48 43 45 3 -4 20 -26 38 -50z
m-526 8 c25 0 27 -3 27 -44 0 -43 -1 -45 -52 -70 -52 -26 -82 -31 -112 -20
-22 8 -20 32 5 74 28 47 60 71 84 65 11 -3 32 -5 48 -5z m1089 -45 c21 -28 38
-58 38 -67 0 -34 -73 -35 -139 -2 -38 19 -38 20 -43 69 -3 40 -3 40 37 46 61
10 67 7 107 -46z m-746 -140 c19 -28 24 -43 17 -55 -11 -17 -71 -60 -85 -60
-28 0 -18 110 14 142 11 11 21 18 23 16 2 -2 16 -21 31 -43z m364 -31 c20 -85
2 -102 -60 -59 -42 29 -50 54 -25 75 8 7 15 18 15 24 0 7 5 17 12 24 18 18 47
-15 58 -64z m2686 14 c-4 -24 -12 -69 -18 -100 l-12 -57 -155 -3 c-86 -2 -158
-1 -161 0 -3 2 23 30 56 61 63 59 158 113 229 130 68 15 67 15 61 -31z m-3242
-85 c-1 -76 -1 -76 -35 -94 -33 -16 -60 -23 -86 -20 -16 1 -17 64 -2 94 20 38
82 97 104 97 18 0 20 -6 19 -77z m734 52 c32 -27 72 -102 72 -134 0 -32 -28
-41 -76 -24 -24 8 -47 20 -52 26 -6 7 -12 45 -14 85 -3 68 -2 72 19 72 12 0
35 -11 51 -25z m2909 -116 c22 -30 48 -67 56 -84 36 -75 40 -85 35 -91 -3 -3
-14 -1 -25 5 -26 15 -139 64 -196 86 -41 16 -48 21 -42 39 3 12 10 50 16 85 5
35 12 67 15 73 9 14 95 -55 141 -113z m-3872 94 c-4 -10 -10 -58 -14 -108 l-6
-90 -35 -17 c-68 -35 -163 -19 -235 37 -20 16 -19 17 14 80 18 36 47 76 63 90
27 23 38 25 125 25 87 0 94 -2 88 -17z m1338 -13 c19 -16 48 -56 66 -89 l31
-59 -27 -22 c-68 -53 -163 -66 -233 -30 l-40 20 0 83 c0 45 -3 92 -6 105 -6
22 -5 22 84 22 87 0 93 -1 125 -30z m-1965 -3 c17 -10 32 -21 32 -26 0 -5 -16
-23 -35 -40 -30 -26 -45 -31 -88 -32 -170 -5 -241 9 -377 74 l-45 21 88 7 c48
3 89 8 92 11 3 2 71 4 152 3 118 -1 155 -5 181 -18z m2799 7 c86 -7 94 -14 40
-38 -118 -53 -275 -81 -372 -67 -53 7 -100 32 -115 62 -8 14 -3 21 28 36 31
15 59 18 187 16 83 -1 187 -5 232 -9z m-1575 -60 c34 -38 84 -67 136 -79 50
-10 58 -37 28 -90 -30 -51 -82 -94 -149 -123 l-48 -21 -57 27 c-63 29 -148
109 -158 148 -9 34 8 50 74 70 41 13 68 30 97 61 22 23 41 43 43 43 1 0 17
-16 34 -36z m-1007 -16 c-4 -13 -9 -51 -12 -84 l-5 -61 41 -33 c45 -36 41 -50
-14 -50 -34 0 -128 32 -151 51 -28 23 1 83 75 162 40 43 78 51 66 15z m2009
-8 c34 -30 101 -144 92 -158 -12 -18 -126 -62 -163 -62 -54 0 -56 11 -13 55
39 40 42 46 37 86 -2 24 -9 59 -15 77 -9 28 -9 32 8 32 11 0 35 -14 54 -30z
m-3585 -104 c84 -62 93 -77 99 -158 2 -40 0 -89 -6 -108 l-10 -35 -1 37 c-1
26 -7 42 -21 50 -16 10 -20 24 -20 65 0 47 -2 53 -21 53 -12 0 -34 14 -49 30
-15 17 -36 30 -45 30 -9 0 -15 3 -13 8 22 44 32 62 36 62 2 0 25 -15 51 -34z
m887 23 c3 -6 -1 -18 -10 -27 -15 -15 -16 -14 -16 11 0 27 13 36 26 16z m-129
-61 c-3 -7 -5 -2 -5 12 0 14 2 19 5 13 2 -7 2 -19 0 -25z m-1021 8 c10 -8 17
-16 14 -18 -34 -29 -89 -63 -154 -97 -82 -43 -120 -48 -133 -15 -8 20 35 64
63 64 12 0 27 7 35 16 19 23 100 63 130 64 14 0 34 -6 45 -14z m1464 10 c0 -2
-9 -21 -20 -43 -11 -21 -30 -63 -43 -94 -22 -50 -30 -58 -83 -84 -39 -18 -86
-55 -136 -106 -86 -86 -88 -85 -64 26 23 107 86 215 160 272 38 30 47 33 114
33 39 0 72 -2 72 -4z m2878 -26 c87 -63 160 -202 169 -323 l4 -62 -22 30 c-45
60 -125 128 -190 160 -63 32 -67 37 -83 87 -10 29 -26 68 -37 86 -10 18 -19
37 -19 43 0 5 31 9 68 9 61 0 74 -4 110 -30z m-1848 -5 c0 -9 12 -39 26 -67
25 -50 25 -51 9 -95 -22 -56 -91 -131 -106 -116 -14 14 -15 74 -5 163 11 99
15 110 39 120 32 13 37 12 37 -5z m695 -19 c19 -28 33 -250 17 -260 -18 -11
-84 56 -109 112 -20 46 -21 55 -9 67 8 8 22 37 31 64 13 41 19 48 36 44 11 -3
27 -15 34 -27z m2105 -66 c0 -15 4 -30 9 -35 6 -6 31 -52 56 -104 65 -133 139
-227 217 -277 48 -31 139 -33 218 -4 44 15 69 35 126 95 67 71 104 93 104 60
0 -44 -190 -172 -329 -222 l-81 -28 0 -47 c0 -27 -2 -48 -5 -48 -7 0 -105 59
-152 92 -107 73 -245 257 -224 297 5 9 11 76 15 150 3 73 9 138 13 144 9 14
32 -39 33 -73z m-4793 -7 c6 -27 -4 -73 -16 -73 -5 0 -11 29 -13 65 -2 56 -1
63 10 48 7 -10 15 -28 19 -40z m133 8 c0 -4 -6 -16 -14 -26 -12 -17 -14 -15
-17 29 -4 47 -4 47 13 26 10 -12 18 -25 18 -29z m4370 7 c0 -38 -1 -41 -16
-27 -12 13 -13 20 -3 42 7 15 14 27 16 27 1 0 3 -19 3 -42z m136 -4 c-3 -26
-6 -59 -6 -73 -1 -25 -1 -25 -15 -7 -18 24 -19 52 -4 95 17 48 33 39 25 -15z
m-2866 -92 c-37 -98 -93 -182 -146 -222 -61 -46 -66 -38 -30 43 17 39 42 108
55 152 29 102 33 109 61 113 12 2 36 12 54 21 31 18 31 18 34 -4 2 -13 -11
-59 -28 -103z m1073 111 c18 -9 45 -19 62 -23 20 -4 32 -14 37 -30 28 -100 56
-184 80 -239 15 -35 26 -66 23 -69 -2 -3 -23 8 -45 23 -67 46 -139 160 -169
265 -7 25 -17 55 -22 68 -10 26 -7 27 34 5z m-1713 -60 c0 -3 -29 -37 -65 -76
-35 -39 -72 -87 -81 -106 -10 -20 -19 -30 -22 -23 -9 27 41 188 74 239 l14 23
40 -26 c22 -15 40 -29 40 -31z m2462 5 c35 -71 48 -113 48 -161 l0 -40 -29 44
c-16 24 -52 67 -80 94 l-49 50 36 32 c20 18 39 32 42 33 3 0 18 -24 32 -52z
m1540 -19 c174 -36 298 -73 298 -88 0 -3 -15 -17 -33 -30 -17 -14 -50 -48 -73
-75 -45 -58 -133 -102 -166 -85 -55 30 -180 194 -202 267 -7 21 -5 22 58 22
35 0 88 -5 118 -11z m-5634 -51 c18 -18 16 -22 -29 -58 -70 -56 -183 -88 -195
-55 -9 22 23 65 49 65 12 0 47 14 77 30 61 32 80 36 98 18z m1842 7 c0 -4 -8
-20 -17 -38 -16 -30 -18 -31 -21 -9 -2 13 2 30 8 38 12 14 30 19 30 9z m1966
-20 c9 -37 1 -39 -20 -5 -15 26 -15 30 -2 30 9 0 18 -11 22 -25z m-1093 -37
c35 -25 34 -44 -4 -101 -47 -72 -59 -64 -59 43 0 99 2 100 63 58z m257 -50 c0
-108 -8 -119 -49 -73 -27 31 -43 69 -43 102 -1 8 71 52 85 53 4 0 7 -37 7 -82z
m-2840 -15 c0 -13 -13 -26 -70 -74 -77 -64 -92 -71 -129 -58 -38 14 -40 27 -3
35 47 10 80 25 98 45 9 10 22 19 29 19 7 0 20 9 30 20 18 20 45 27 45 13z
m6100 -74 c0 -21 -82 -110 -119 -128 -20 -10 -69 -37 -109 -61 -40 -23 -75
-40 -78 -37 -3 3 16 18 43 33 63 37 89 60 125 108 44 60 138 118 138 85z
m-3111 -179 c61 -258 60 -250 46 -250 -26 0 -89 77 -121 147 -39 85 -42 113
-14 130 12 8 23 33 32 73 6 33 15 55 18 48 4 -7 21 -74 39 -148z m-721 134
c32 -10 -96 -184 -135 -184 -18 0 -17 5 29 115 32 78 34 81 63 77 17 -2 36 -5
43 -8z m164 -66 c6 -22 19 -40 30 -44 15 -4 18 -11 13 -27 -3 -12 -10 -35 -14
-52 -19 -73 -105 -195 -137 -195 -18 0 -18 16 2 87 9 32 18 69 21 83 11 64 47
197 57 215 10 19 11 19 13 -5 2 -14 8 -42 15 -62z m758 2 c12 -36 29 -74 36
-85 25 -35 18 -48 -15 -30 -58 30 -150 169 -119 180 24 8 63 11 69 6 3 -4 16
-35 29 -71z m-466 14 c34 -38 39 -51 43 -106 6 -72 -20 -166 -64 -232 -25 -38
-26 -39 -40 -20 -9 10 -29 48 -47 84 -27 57 -31 75 -30 142 2 75 3 78 44 127
24 28 46 51 49 50 3 0 23 -21 45 -45z m-2603 -13 c16 -16 29 -37 29 -46 0 -18
-52 -75 -68 -75 -20 0 -72 52 -72 72 0 21 51 78 70 78 6 0 25 -13 41 -29z
m1878 -78 c-12 -21 -25 -42 -30 -47 -5 -6 -9 -26 -9 -45 0 -31 5 -38 35 -51
l35 -15 -16 -35 c-121 -266 -273 -458 -459 -576 -30 -19 -30 -19 8 31 147 194
278 440 353 664 29 86 47 111 80 111 l24 0 -21 -37z m1399 21 c12 -8 22 -23
22 -32 0 -9 12 -49 26 -87 15 -39 33 -88 41 -110 45 -124 182 -371 263 -475
15 -19 36 -48 46 -65 l19 -30 -34 22 c-115 72 -266 234 -342 368 -35 61 -109
214 -109 225 0 5 14 16 30 25 38 20 40 62 5 124 -14 23 -25 45 -25 47 0 10 38
2 58 -12z m-1197 -226 c-14 -39 -14 -175 -1 -180 9 -3 -9 -70 -23 -84 -4 -4
-7 -14 -7 -23 0 -23 -97 -215 -145 -286 -70 -105 -231 -245 -283 -245 -7 0 5
24 27 54 132 178 299 515 368 741 13 43 25 63 43 72 21 11 26 10 28 -3 2 -8
-1 -29 -7 -46z m1039 -84 c63 -170 81 -215 122 -299 64 -128 125 -234 199
-343 33 -47 59 -89 59 -93 0 -11 -59 20 -116 62 -124 91 -233 250 -319 467
-33 82 -36 96 -25 117 13 24 11 77 -6 193 -6 41 -6 42 16 34 18 -7 33 -36 70
-138z m-271 -64 c33 -16 40 -28 79 -132 39 -101 135 -306 195 -413 12 -22 57
-93 100 -159 71 -107 88 -147 53 -121 -7 6 -31 22 -52 36 -133 89 -316 356
-432 629 -63 149 -86 224 -78 254 l7 27 46 -51 c25 -28 62 -59 82 -70z m-450
91 c11 -20 -3 -76 -40 -158 -10 -24 -19 -48 -19 -54 0 -6 -32 -76 -71 -155
-125 -252 -259 -430 -396 -525 -23 -16 -46 -29 -52 -29 -9 0 83 149 159 261
28 41 185 370 200 419 8 25 17 50 20 55 4 6 10 22 14 38 4 18 22 37 54 57 27
16 63 47 81 70 17 22 34 40 36 40 2 0 9 -9 14 -19z m103 -221 c11 -133 -36
-425 -94 -589 -35 -99 -80 -188 -120 -234 l-27 -32 5 85 c8 132 43 393 60 452
9 29 29 78 44 108 35 68 96 215 106 253 9 40 21 21 26 -43z m153 -3 c16 -49
34 -89 105 -241 16 -35 35 -94 41 -132 6 -38 15 -94 20 -124 24 -151 35 -345
19 -335 -16 10 -78 108 -95 151 -9 21 -22 53 -30 69 -32 72 -60 198 -95 438
-11 76 -13 220 -4 230 12 12 22 -3 39 -56z m-82 -534 c2 -21 17 -71 32 -112
25 -66 26 -77 15 -114 -10 -34 -57 -117 -65 -117 -5 0 -51 84 -65 118 -10 25
-10 39 -2 55 13 27 35 95 52 164 15 59 26 61 33 6z m394 -40 c11 -16 51 -62
89 -104 55 -61 72 -88 86 -135 9 -32 15 -60 13 -63 -14 -13 -174 138 -199 187
-15 30 -29 142 -17 142 4 0 16 -12 28 -27z m-797 -42 c0 -54 -3 -63 -43 -114
-38 -48 -146 -147 -161 -147 -13 0 -5 43 19 95 15 35 54 88 102 140 43 46 79
84 81 85 1 0 2 -26 2 -59z"/>
<path d="M20004 17600 c-167 -14 -349 -75 -474 -160 -83 -56 -196 -170 -238
-242 -18 -31 -45 -89 -59 -130 -23 -65 -26 -89 -27 -213 -1 -127 2 -147 26
-213 37 -102 82 -172 158 -249 149 -149 376 -263 670 -338 312 -79 448 -144
531 -254 50 -68 64 -111 64 -206 0 -95 -23 -151 -89 -218 -98 -97 -207 -131
-421 -131 -128 0 -161 3 -225 23 -195 60 -296 157 -335 322 -8 35 -15 83 -15
107 l0 42 -214 0 c-213 0 -214 0 -220 -22 -21 -81 9 -248 66 -368 107 -223
405 -414 727 -466 122 -20 342 -19 467 1 333 53 593 244 681 498 33 96 42 268
19 377 -46 219 -211 408 -473 539 -115 57 -192 85 -393 141 -342 95 -484 173
-551 301 -34 65 -32 184 3 260 71 156 205 222 448 223 184 1 291 -32 388 -119
79 -71 132 -202 132 -325 l0 -50 214 0 214 0 9 28 c13 35 -1 192 -23 257 -62
193 -230 384 -422 480 -171 86 -405 124 -638 105z"/>
<path d="M28680 17603 c-279 -19 -500 -117 -664 -294 -128 -138 -183 -295
-173 -493 10 -208 88 -355 258 -490 149 -117 342 -204 615 -276 270 -71 383
-120 469 -201 140 -132 150 -336 22 -467 -54 -56 -104 -85 -197 -114 -65 -20
-95 -23 -225 -22 -172 1 -240 15 -350 72 -80 42 -144 103 -174 164 -28 59 -51
153 -51 210 l0 48 -215 0 -215 0 -6 -26 c-14 -53 4 -200 33 -286 52 -150 145
-263 300 -365 205 -135 412 -193 680 -194 335 0 587 88 772 271 158 156 222
379 175 607 -38 183 -128 319 -295 443 -146 109 -284 169 -587 255 -294 83
-418 143 -494 236 -124 152 -67 392 114 485 203 104 528 75 684 -59 73 -64
133 -212 134 -329 l0 -48 215 0 214 0 7 36 c11 57 -3 174 -31 260 -73 233
-289 440 -545 524 -117 38 -336 63 -470 53z"/>
<path d="M31410 17600 c-336 -29 -618 -202 -740 -455 -47 -99 -63 -172 -63
-295 -1 -117 14 -181 64 -288 50 -105 139 -201 262 -283 161 -108 293 -162
565 -234 291 -76 417 -138 494 -240 50 -66 68 -123 68 -210 0 -160 -107 -278
-301 -331 -88 -25 -327 -25 -418 -1 -221 60 -335 182 -363 390 l-12 87 -208 0
-208 0 -11 -27 c-7 -17 -8 -57 -5 -100 25 -277 172 -475 461 -621 95 -47 250
-96 355 -112 106 -16 332 -13 442 4 344 56 599 243 690 505 20 58 23 85 23
221 0 142 -3 161 -27 228 -37 102 -82 174 -158 251 -156 160 -334 251 -669
346 -205 57 -269 79 -356 122 -117 57 -186 121 -221 203 -20 46 -19 159 1 219
17 53 80 134 130 168 115 78 352 104 531 57 189 -49 295 -185 320 -411 l7 -63
209 0 208 0 11 28 c23 59 -10 237 -65 357 -102 217 -309 381 -570 451 -75 20
-307 48 -351 42 -5 0 -48 -4 -95 -8z"/>
<path d="M10847 17563 c-4 -3 -7 -604 -7 -1335 l0 -1328 225 0 225 0 0 565 0
565 570 0 570 0 0 -565 0 -565 225 0 225 0 0 1335 0 1335 -222 -2 -223 -3 -3
-578 -2 -577 -568 2 -567 3 -3 578 -2 577 -218 0 c-120 0 -222 -3 -225 -7z"/>
<path d="M13931 17553 c-8 -16 -171 -436 -830 -2141 -105 -272 -191 -498 -191
-503 0 -6 95 -8 231 -7 l231 3 121 328 121 327 500 -2 501 -3 119 -327 119
-328 229 0 c190 0 228 2 228 14 0 8 -16 56 -36 108 -20 51 -240 629 -489 1283
-249 655 -460 1207 -468 1228 l-16 37 -180 0 c-162 0 -181 -2 -190 -17z m349
-1008 c84 -258 161 -496 170 -527 l18 -58 -353 0 -352 0 176 535 c97 294 179
531 182 527 4 -4 75 -218 159 -477z"/>
<path d="M15277 17563 c-12 -11 -8 -1767 3 -1888 6 -60 18 -137 26 -170 73
-283 288 -496 594 -589 122 -37 204 -47 372 -47 316 0 546 72 747 235 117 94
216 250 255 403 33 126 37 260 34 1163 l-3 895 -222 3 -222 2 -3 -952 c-4
-925 -4 -955 -24 -1019 -53 -171 -175 -283 -364 -335 -82 -22 -290 -25 -370
-5 -130 33 -261 130 -313 233 -63 127 -61 80 -65 1126 l-3 952 -218 0 c-120 0
-221 -3 -224 -7z"/>
<path d="M17545 17558 c-3 -7 -4 -607 -3 -1333 l3 -1320 830 0 830 0 0 185 0
185 -602 3 -603 2 -2 1143 -3 1142 -223 3 c-173 2 -224 0 -227 -10z"/>
<path d="M21040 17380 l0 -190 410 0 410 0 0 -1145 0 -1145 225 0 225 0 0
1145 0 1145 410 0 410 0 0 190 0 190 -1045 0 -1045 0 0 -190z"/>
<path d="M23205 17558 c-3 -7 -4 -607 -3 -1333 l3 -1320 900 0 900 0 0 185 0
185 -675 5 -675 5 0 400 0 400 585 5 585 5 0 185 0 185 -588 3 -587 2 2 358 3
357 665 5 665 5 0 185 0 185 -888 3 c-705 2 -889 0 -892 -10z"/>
<path d="M25080 16235 l0 -1336 513 4 c473 4 519 5 607 25 117 25 187 50 282
97 257 129 463 375 542 646 47 164 51 213 51 574 -1 316 -2 347 -23 444 -99
453 -421 767 -880 858 -61 12 -181 17 -584 20 l-508 5 0 -1337z m1050 930
c191 -61 346 -200 426 -382 54 -120 65 -199 71 -468 8 -355 -11 -501 -82 -650
-68 -142 -188 -266 -311 -321 -115 -51 -153 -56 -436 -61 l-268 -5 0 957 0
957 273 -4 c225 -4 282 -8 327 -23z"/>
<path d="M29900 15130 l0 -230 225 0 225 0 0 230 0 230 -225 0 -225 0 0 -230z"/>
<path d="M2590 11295 l0 -385 60 0 60 0 2 201 3 202 28 21 c37 27 118 29 144
3 16 -15 19 -43 23 -220 l5 -202 58 -3 57 -3 0 208 c0 197 -1 211 -22 253 -43
84 -161 117 -253 70 -22 -11 -41 -20 -42 -20 -2 0 -3 59 -3 130 l0 130 -60 0
-60 0 0 -385z"/>
<path d="M8722 11298 l3 -383 58 -3 57 -3 0 200 0 200 25 20 c54 41 133 38
163 -7 14 -22 18 -58 21 -219 l3 -193 54 0 54 0 0 208 c0 233 -8 268 -71 313
-48 34 -141 39 -197 10 -23 -12 -44 -21 -47 -21 -3 0 -5 59 -5 130 l0 130 -60
0 -60 0 2 -382z"/>
<path d="M12472 11298 l3 -383 58 -3 57 -3 0 196 0 196 26 24 c49 45 131 44
162 -3 14 -22 18 -59 22 -217 l5 -190 55 0 55 0 3 175 c3 197 -7 266 -46 311
-50 60 -147 77 -231 39 -24 -11 -45 -20 -47 -20 -2 0 -4 59 -4 130 l0 130 -60
0 -60 0 2 -382z"/>
<path d="M13550 11620 l0 -60 60 0 60 0 0 60 0 60 -60 0 -60 0 0 -60z"/>
<path d="M15375 11667 c-3 -6 -4 -179 -3 -382 l3 -370 57 -3 57 -3 3 118 c3
110 4 118 23 121 16 2 37 -21 95 -104 41 -59 81 -113 88 -121 13 -13 123 -19
135 -7 3 3 -40 69 -95 145 -55 77 -98 146 -95 153 3 7 42 60 86 119 45 58 81
108 81 111 0 3 -31 6 -69 6 l-69 0 -69 -97 c-47 -68 -75 -98 -88 -98 -19 0
-20 8 -23 213 l-2 212 -56 0 c-34 0 -56 -5 -59 -13z"/>
<path d="M21147 11673 c-4 -3 -7 -30 -7 -60 l0 -53 60 0 60 0 0 60 0 60 -53 0
c-30 0 -57 -3 -60 -7z"/>
<path d="M22220 11555 c0 -80 -4 -125 -10 -125 -6 0 -25 7 -42 16 -22 11 -49
15 -94 12 -52 -3 -70 -9 -101 -35 -62 -50 -87 -110 -91 -222 -2 -53 1 -114 7
-137 15 -57 62 -117 106 -138 53 -25 145 -24 191 3 43 26 40 26 47 0 5 -17 12
-20 54 -17 l48 3 0 380 0 380 -57 3 -58 3 0 -126z m-66 -205 c59 -22 66 -40
66 -166 0 -114 0 -116 -29 -145 -54 -54 -155 -32 -183 40 -5 14 -10 59 -10 99
1 138 63 208 156 172z"/>
<path d="M25590 11295 l0 -386 58 3 57 3 5 200 5 199 34 23 c45 30 92 30 128
-1 l28 -24 5 -199 5 -198 58 -3 58 -3 -3 213 c-3 184 -6 218 -22 251 -39 80
-157 111 -253 67 l-43 -19 0 129 0 130 -60 0 -60 0 0 -385z"/>
<path d="M28420 11295 l0 -385 50 0 c43 0 50 3 50 20 0 25 1 25 52 -1 50 -25
141 -28 184 -6 75 39 116 113 122 221 11 193 -70 316 -208 316 -28 0 -67 -7
-87 -15 -19 -8 -37 -15 -39 -15 -2 0 -4 56 -4 125 l0 125 -60 0 -60 0 0 -385z
m287 43 c31 -25 53 -91 53 -161 0 -116 -36 -167 -118 -167 -35 0 -49 6 -73 29
-29 29 -29 31 -29 141 0 61 5 120 10 130 25 46 116 63 157 28z"/>
<path d="M1770 11515 l0 -65 -40 0 -40 0 0 -44 c0 -44 0 -45 38 -48 l37 -3 5
-180 c5 -195 11 -215 65 -251 47 -31 156 -14 154 24 -3 51 -14 67 -45 64 -51
-5 -55 9 -52 184 l3 159 48 3 48 3 -3 42 -3 42 -47 3 -48 3 0 65 0 64 -60 0
-60 0 0 -65z"/>
<path d="M11657 11573 c-4 -3 -7 -33 -7 -65 l0 -58 -40 0 -40 0 0 -44 c0 -44
0 -45 38 -48 l37 -3 5 -180 c3 -108 10 -188 17 -200 31 -54 97 -81 158 -64 43
12 49 22 41 65 -6 31 -10 34 -40 34 -54 0 -57 11 -54 186 l3 159 48 3 47 3 0
44 0 44 -47 3 -48 3 -3 63 -3 62 -53 0 c-29 0 -56 -3 -59 -7z"/>
<path d="M19308 11518 l-3 -63 -40 -5 c-39 -5 -40 -6 -43 -47 -3 -42 -2 -43
27 -43 62 0 61 4 61 -187 0 -194 7 -220 61 -249 36 -18 108 -21 138 -4 21 11
21 18 5 80 -2 10 -16 15 -41 15 l-38 0 -3 173 -2 172 45 0 45 0 0 45 0 45 -45
0 -44 0 -3 63 -3 62 -57 3 -57 3 -3 -63z"/>
<path d="M24758 11518 l-3 -63 -37 -3 c-38 -3 -38 -4 -38 -47 0 -43 0 -44 38
-47 l37 -3 5 -185 c5 -202 12 -227 68 -249 47 -18 109 -17 135 2 14 10 16 20
10 51 -8 38 -10 40 -48 40 l-40 1 -3 173 -2 172 45 0 45 0 0 45 0 45 -45 0
-44 0 -3 63 -3 62 -57 3 -57 3 -3 -63z"/>
<path d="M3769 11437 c-49 -26 -102 -95 -119 -155 -14 -53 -12 -151 5 -208 19
-64 73 -127 127 -149 56 -22 155 -22 200 0 89 46 138 135 138 254 0 178 -88
281 -242 281 -48 0 -76 -6 -109 -23z m176 -99 c39 -30 55 -77 55 -155 0 -76
-25 -144 -58 -162 -30 -16 -99 -13 -127 5 -33 22 -55 84 -55 160 0 110 44 174
120 174 23 0 48 -8 65 -22z"/>
<path d="M4845 11447 c-78 -31 -115 -81 -115 -157 0 -36 6 -48 38 -80 30 -31
57 -44 140 -69 122 -38 147 -66 102 -111 -15 -15 -33 -20 -73 -20 -62 0 -93
18 -102 60 -6 29 -9 30 -60 30 -30 0 -57 -4 -60 -10 -12 -19 16 -89 47 -121
45 -45 91 -61 174 -61 144 0 240 97 204 206 -19 58 -73 90 -221 130 -56 16
-69 28 -69 66 0 41 83 65 132 39 11 -6 26 -26 34 -45 14 -32 17 -34 64 -34 56
0 64 8 56 55 -9 45 -51 93 -101 116 -46 21 -143 24 -190 6z"/>
<path d="M5865 11443 c-89 -46 -136 -124 -143 -234 -8 -136 38 -233 134 -279
62 -31 161 -30 232 0 68 30 77 41 58 77 -31 57 -30 56 -71 29 -35 -24 -74 -32
-130 -26 -47 4 -90 51 -101 109 l-7 32 167 -3 166 -3 0 75 c0 80 -27 157 -66
192 -53 47 -178 63 -239 31z m156 -112 c19 -20 29 -40 29 -60 l0 -31 -105 0
c-58 0 -105 2 -105 5 0 17 43 86 62 99 36 26 85 20 119 -13z"/>
<path d="M9903 11435 c-84 -42 -133 -136 -133 -254 0 -74 14 -119 53 -177 44
-66 105 -96 190 -96 147 1 236 101 237 267 0 99 -12 142 -53 197 -67 88 -190
115 -294 63z m172 -97 c39 -30 55 -77 55 -159 0 -118 -36 -169 -120 -169 -38
0 -51 5 -73 28 -69 72 -60 254 14 306 33 23 91 20 124 -6z"/>
<path d="M14463 11436 c-41 -23 -42 -24 -48 -5 -5 16 -16 19 -61 19 l-54 0 2
-267 3 -268 58 -3 57 -3 0 194 0 193 31 30 c40 38 116 42 151 6 22 -22 23 -30
27 -223 l3 -200 57 3 56 3 3 175 c3 197 -7 266 -46 311 -53 63 -162 79 -239
35z"/>
<path d="M17255 11441 c-92 -42 -140 -132 -139 -261 0 -98 21 -155 75 -209 45
-46 92 -63 166 -63 154 -1 255 127 240 301 -13 157 -104 251 -242 251 -37 0
-75 -7 -100 -19z m154 -96 c44 -22 66 -77 65 -165 0 -116 -38 -170 -120 -170
-58 0 -90 28 -110 97 -18 62 -13 136 13 191 27 57 94 78 152 47z"/>
<path d="M20224 11441 c-61 -28 -98 -81 -98 -141 0 -28 7 -58 17 -74 22 -32
94 -69 178 -91 72 -19 99 -38 99 -70 0 -36 -31 -55 -89 -55 -42 0 -57 5 -76
25 -14 13 -25 33 -25 45 0 18 -6 20 -60 20 -58 0 -60 -1 -60 -25 0 -97 93
-168 222 -168 124 0 208 66 208 164 0 37 -6 55 -26 79 -34 39 -64 54 -161 81
-43 12 -83 25 -89 30 -44 36 -2 99 66 99 45 0 75 -23 86 -65 6 -24 10 -26 58
-23 51 3 51 3 54 38 9 113 -172 191 -304 131z"/>
<path d="M23094 11446 c-41 -18 -96 -74 -119 -122 -28 -56 -33 -200 -10 -261
23 -61 70 -112 125 -136 84 -37 212 -21 284 37 18 14 18 16 -5 53 -12 21 -24
40 -25 42 -2 2 -18 -7 -36 -20 -24 -18 -50 -25 -100 -27 -65 -4 -69 -3 -97 27
-15 16 -33 49 -39 71 l-10 41 166 -2 167 -1 3 62 c5 110 -44 202 -125 236 -41
18 -139 17 -179 0z m137 -96 c22 -12 49 -61 49 -90 0 -19 -6 -20 -105 -20 -58
0 -105 2 -105 5 0 3 6 20 14 39 26 63 95 94 147 66z"/>
<path d="M26775 11446 c-46 -20 -95 -74 -123 -134 -22 -48 -24 -64 -20 -145 5
-101 23 -150 75 -199 83 -79 248 -81 347 -6 19 15 19 16 -4 54 -13 21 -25 41
-27 43 -1 2 -11 -3 -20 -12 -42 -38 -149 -52 -192 -25 -26 15 -61 78 -61 108
0 19 6 20 166 20 l167 0 -5 84 c-5 105 -38 166 -107 203 -51 27 -146 31 -196
9z m150 -108 c15 -14 28 -38 32 -60 l6 -38 -107 0 c-58 0 -106 2 -106 5 0 3 6
20 14 39 30 72 109 98 161 54z"/>
<path d="M29602 11439 c-94 -48 -137 -139 -130 -278 8 -162 91 -252 232 -253
162 0 255 114 244 302 -6 94 -43 169 -106 214 -35 25 -53 30 -119 33 -65 4
-85 1 -121 -18z m173 -101 c38 -30 55 -76 55 -153 0 -114 -41 -175 -118 -175
-58 0 -80 14 -103 63 -22 51 -25 162 -5 211 19 46 61 76 106 76 23 0 48 -8 65
-22z"/>
<path d="M7450 11448 c0 -2 36 -122 78 -268 l78 -265 46 -3 46 -3 51 159 c28
88 51 167 51 175 0 26 20 30 21 5 0 -13 24 -93 52 -178 l52 -155 42 -3 c37 -3
44 0 53 20 10 24 150 501 150 512 0 3 -26 6 -59 6 l-59 0 -37 -152 c-21 -84
-41 -159 -44 -166 -4 -7 -31 62 -59 153 l-53 165 -48 0 -48 0 -47 -152 c-26
-84 -51 -156 -55 -161 -4 -4 -20 43 -36 105 -15 62 -34 134 -42 161 l-14 47
-59 0 c-33 0 -60 -1 -60 -2z"/>
<path d="M13552 11183 l3 -268 55 0 55 0 3 268 2 267 -60 0 -60 0 2 -267z"/>
<path d="M18200 11280 c0 -243 20 -310 103 -353 52 -27 136 -26 183 2 44 26
54 26 54 0 0 -18 5 -20 53 -17 l52 3 3 268 2 267 -60 0 -60 0 0 -186 c0 -108
-4 -193 -10 -205 -23 -43 -124 -65 -164 -36 -27 20 -36 80 -36 260 l0 167 -60
0 -60 0 0 -170z"/>
<path d="M21142 11183 l3 -268 55 0 55 0 3 268 2 267 -60 0 -60 0 2 -267z"/>
<path d="M30506 11438 c4 -7 43 -66 87 -132 l79 -118 -86 -129 c-47 -71 -86
-133 -86 -139 0 -6 28 -10 65 -10 l64 0 53 90 c28 49 55 87 60 82 4 -4 29 -43
55 -87 l48 -80 68 -3 c37 -2 67 0 67 3 0 3 -39 63 -86 135 -54 80 -84 135 -81
145 4 8 40 67 82 130 41 64 75 118 75 121 0 2 -30 4 -67 4 l-68 0 -49 -86
c-55 -97 -46 -98 -110 19 l-38 67 -69 0 c-54 0 -68 -3 -63 -12z"/>
</g>
</svg>
